<?xml version="1.0" encoding="UTF-8" standalone="no"?>
<!-- Generator: Adobe Illustrator 27.3.1, SVG Export Plug-In . SVG Version: 6.00 Build 0)  -->

<svg
   version="1.1"
   id="Layer_1"
   x="0px"
   y="0px"
   viewBox="0 0 1295 847.7"
   style="enable-background:new 0 0 1295 847.7;"
   xml:space="preserve"
   xmlns:xlink="http://www.w3.org/1999/xlink"
   xmlns="http://www.w3.org/2000/svg"
   xmlns:svg="http://www.w3.org/2000/svg"><defs
   id="defs3497" />
<style
   type="text/css"
   id="style2865">
	.st0{enable-background:new    ;}
	.st1{fill:#005460;}
	.st2{fill:#005D6B;}
	.st3{fill:#808080;}
	.st4{fill:#8F8F8F;}
	.st5{fill:#E9E9E9;}
	.st6{fill:#0098AE;}
	.st7{fill:#8AE3FF;}
	.st8{fill:#00554F;}
	.st9{fill:#005F58;}
	.st10{opacity:0.9;}
	.st11{fill:#BBC2CC;}
	.st12{opacity:0.88;}
	.st13{fill:#F1FF8D;stroke:#F1FFA1;stroke-width:3;stroke-miterlimit:10;}
	.st14{fill:#8AE3FF;stroke:#000000;stroke-miterlimit:10;}
	.st15{fill:none;stroke:#005F58;stroke-width:3;stroke-miterlimit:10;}
	.st16{fill:#FFFFFF;stroke:#FFFFFF;stroke-width:2;stroke-miterlimit:10;}
	.st17{fill:#FFFFFF;stroke:#000000;stroke-width:2;stroke-miterlimit:10;}
	.st18{font-family:'ArialMT';}
	.st19{font-size:45.7156px;}
	.st20{font-size:45px;}
	.st21{font-family:'TimesNewRomanPS-BoldMT';}
	.st22{font-size:32px;}
	.st23{letter-spacing:25.9;}
	.st24{font-size:19.7019px;}
	.st25{font-size:47.7148px;}
	.st26{fill:none;stroke:#23005F;stroke-width:0.75;stroke-miterlimit:10;}
	.st27{fill:#FFFFFF;}
	.st28{font-size:3.8714px;}
	.st29{font-size:3.46px;}
	.st30{font-size:3.4597px;}
	.st31{font-size:10.7074px;}
	.st32{font-size:3.5335px;}
	.st33{fill:#009FB4;}
	.st34{fill:#AEED2D;}
	.st35{fill:#D1D3D4;}
	.st36{fill:#1A2D58;}
	.st37{fill:#808285;}
	.st38{fill:#CBCDCF;}
	.st39{fill:#081835;}
	.st40{fill:#E3C6A7;}
</style>
<g
   id="g2873">
	<g
   id="g2871">
		<g
   id="g2869">
			
				<image
   style="overflow:visible;enable-background:new    ;"
   width="1067"
   height="118"
   xlink:href="../Venturimeter%20Exp/B5BEEBF3.png"
   transform="matrix(0.999 0 0 0.999 185.5744 680.2949)"
   id="image2867">
			</image>
		</g>
	</g>
</g>
<g
   id="g2879">
	<g
   id="g2877">
		
			<image
   style="overflow:visible;enable-background:new    ;"
   width="646"
   height="271"
   xlink:href="../Venturimeter%20Exp/B5BEEBF1.png"
   transform="matrix(0.9981 0 0 0.9981 595.6044 503.8862)"
   id="image2875">
		</image>
	</g>
</g>
<g
   id="g2885">
	<g
   id="g2883">
		
			<image
   style="overflow:visible;enable-background:new    ;"
   width="88"
   height="511"
   xlink:href="../Venturimeter%20Exp/B5BEEBFE.png"
   transform="matrix(0.4891 0 0 0.4891 222.0019 540.2811)"
   id="image2881">
		</image>
	</g>
</g>
<g
   id="g2891">
	<g
   id="g2889">
		
			<image
   style="overflow:visible;enable-background:new    ;"
   width="86"
   height="512"
   xlink:href="../Venturimeter%20Exp/B5BEEBFF.png"
   transform="matrix(0.4885 0 0 0.4885 267.6013 488.3259)"
   id="image2887">
		</image>
	</g>
</g>
<g
   id="g2897">
	<g
   id="g2895">
		
			<image
   style="overflow:visible;enable-background:new    ;"
   width="88"
   height="512"
   xlink:href="../Venturimeter%20Exp/B5BEEBF2.png"
   transform="matrix(0.4881 0 0 0.4881 514.9359 488.4066)"
   id="image2893">
		</image>
	</g>
</g>
<g
   id="g2903">
	<g
   id="g2901">
		
			<image
   style="overflow:visible;enable-background:new    ;"
   width="88"
   height="512"
   xlink:href="../Venturimeter%20Exp/B5BEEBF5.png"
   transform="matrix(0.4881 0 0 0.4881 469.8518 541.2742)"
   id="image2899">
		</image>
	</g>
</g>
<g
   id="g2941">
	<g
   id="g2939">
		<g
   class="st0"
   id="g2937">
			<g
   id="g2907">
				<polygon
   class="st1"
   points="588,508 588,523.5 245.6,522.3 245.6,506.9     "
   id="polygon2905" />
			</g>
			<g
   id="g2911">
				<polygon
   class="st2"
   points="245.6,506.9 245.6,522.3 188.4,589.7 188.4,574.2     "
   id="polygon2909" />
			</g>
			<g
   id="g2915">
				<polygon
   class="st3"
   points="530.7,575.4 530.7,590.8 188.4,589.7 188.4,574.2     "
   id="polygon2913" />
			</g>
			<g
   id="g2919">
				<polygon
   class="st4"
   points="588,508 588,523.5 530.7,590.8 530.7,575.4     "
   id="polygon2917" />
			</g>
			<g
   id="g2923">
				<polygon
   class="st5"
   points="245.6,506.9 588,508 530.7,575.4 188.4,574.2     "
   id="polygon2921" />
			</g>
			<g
   id="g2927">
				<polygon
   class="st1"
   points="531.2,576.3 531.2,591.8 186.3,590.6 186.3,575.1     "
   id="polygon2925" />
			</g>
			<g
   id="g2931">
				<polygon
   class="st2"
   points="590.1,507.1 590.1,522.5 531.2,591.8 531.2,576.3     "
   id="polygon2929" />
			</g>
			<g
   id="g2935">
				<path
   class="st6"
   d="M245.1,505.9l344.9,1.2l-58.9,69.2l-344.9-1.2L245.1,505.9z M530.7,575.4l57.2-67.3l-342.4-1.2l-57.2,67.3      L530.7,575.4"
   id="path2933" />
			</g>
		</g>
	</g>
</g>
<polygon
   id="Water_Tank_Base"
   class="st7"
   points="530.5,576.7 188.2,574.9 245.8,507.2 588.1,508.9 " />
<g
   id="g2980">
	<g
   id="g2978">
		<g
   class="st0"
   id="g2976">
			<g
   id="g2946">
				<polygon
   class="st8"
   points="245,321.1 590,322.3 590,507.7 245,506.5     "
   id="polygon2944" />
			</g>
			<g
   id="g2950">
				<polygon
   class="st8"
   points="587.9,323.2 587.9,508.6 245.5,507.5 245.5,322     "
   id="polygon2948" />
			</g>
			<g
   id="g2954">
				<polygon
   class="st3"
   points="245.5,322 587.9,323.2 587.9,508.6 245.5,507.5     "
   id="polygon2952" />
			</g>
			<g
   id="g2958">
				<polygon
   class="st9"
   points="186.2,390.3 245,321.1 245,506.5 186.2,575.7     "
   id="polygon2956" />
			</g>
			<g
   id="g2962">
				<polygon
   class="st9"
   points="245.5,322 245.5,507.5 188.3,574.8 188.3,389.4     "
   id="polygon2960" />
			</g>
			<g
   id="g2966">
				<polygon
   class="st4"
   points="188.3,389.4 245.5,322 245.5,507.5 188.3,574.8     "
   id="polygon2964" />
			</g>
			<g
   id="g2970">
				<polygon
   class="st9"
   points="530.6,390.6 587.9,323.2 587.9,508.6 530.6,576     "
   id="polygon2968" />
			</g>
			<g
   id="g2974">
				<polygon
   class="st4"
   points="587.9,323.2 587.9,508.6 530.6,576 530.6,390.6     "
   id="polygon2972" />
			</g>
		</g>
	</g>
</g>
<g
   id="g2986">
	<g
   id="g2984">
		
			<image
   style="overflow:visible;enable-background:new    ;"
   width="509"
   height="153"
   xlink:href="../Venturimeter%20Exp/C70F2020.png"
   transform="matrix(0.1965 0 0 0.1965 591.0237 495.538)"
   id="image2982">
		</image>
	</g>
</g>
<g
   class="st10"
   id="g2992">
	<g
   id="g2990">
		
			<image
   style="overflow:visible;enable-background:new    ;"
   width="512"
   height="128"
   xlink:href="../Venturimeter%20Exp/C70F202F.png"
   transform="matrix(0.6774 0 0 0.6774 893.2593 503.8959)"
   id="image2988">
		</image>
	</g>
</g>
<g
   id="g2998">
	<g
   id="g2996">
		
			<image
   style="overflow:visible;enable-background:new    ;"
   width="54"
   height="511"
   xlink:href="../Venturimeter%20Exp/C52FA6DB.png"
   transform="matrix(0.5752 0 0 0.3689 997.9247 217.2723)"
   id="image2994">
		</image>
	</g>
</g>

<g
   id="g3010"
   transform="matrix(2.0603282,0,0,1,-295.20809,0)">
	<g
   id="g3008">
		
			<image
   style="overflow:visible;enable-background:new"
   width="513"
   height="43"
   xlink:href="../Venturimeter%20Exp/C52FA6DD.png"
   transform="matrix(0.6978,0,0,0.6978,278.412,202.8737)"
   id="image3006">
		</image>
	</g>
</g>





<g
   id="g3035">
	<g
   id="g3033">
		
			<image
   style="overflow:visible;enable-background:new    ;"
   width="209"
   height="510"
   xlink:href="../Venturimeter%20Exp/C52FA74A.png"
   transform="matrix(0.1416 0 0 0.1078 998.6578 521.5599)"
   id="image3031">
		</image>
	</g>
</g>
<g
   id="g3041">
	<g
   id="g3039">
		
			<image
   style="overflow:visible;enable-background:new    ;"
   width="212"
   height="510"
   xlink:href="../Venturimeter%20Exp/C52FA74F.png"
   transform="matrix(0.1413 0 0 0.1413 676.5494 510.5391)"
   id="image3037">
		</image>
	</g>
</g>
<rect
   id="Water_1"
   x="1004"
   y="519.8"
   class="st7"
   width="19.6"
   height="51.7" />
<rect
   id="Water_9"
   x="681.6"
   y="521.8"
   class="st7"
   width="19.6"
   height="56.8" />
<rect
   id="Water_3"
   x="1004.7"
   y="228.2"
   class="st7"
   width="19.6"
   height="175.2" />
<rect
   id="Water_4"
   x="936"
   y="208.2"
   class="st7"
   width="77.5"
   height="19.6" />
<rect
   id="Water_8"
   x="594.6"
   y="501"
   class="st7"
   width="87.2"
   height="19.6" />
<circle
   id="Tank_Empty_Corner"
   class="st13"
   cx="687.8"
   cy="514.5"
   r="17.4" />

<rect
   id="Water_6"
   x="289.39999"
   y="208.60001"
   class="st7"
   width="624.6297"
   height="19.6"
   style="stroke-width:1.35761" />







<circle
   id="Corner_Top_Right"
   class="st13"
   cx="1013.5"
   cy="221.9"
   r="17.4" />
<ellipse
   id="Suction_Pipe_Opening"
   class="st7"
   cx="1013.8"
   cy="571.7"
   rx="9.8"
   ry="3" />
<ellipse
   id="Tank_Empty_End"
   class="st7"
   cx="691.5"
   cy="578.5"
   rx="9.8"
   ry="3" />
<polygon
   id="Tank_Water_Back"
   class="st7"
   points="245.1,398.1 587.9,399 587.9,508.1 245.1,508.1 " />
<g
   id="g3080">
	<polygon
   class="st1"
   points="590.1,322.1 590.1,507.5 531.2,576.7 531.2,391.3  "
   id="polygon3078" />
</g>
<g
   id="Tank_Empty_Control">
	<g
   id="g3086">
		<g
   id="g3084">
			
				<image
   style="overflow:visible;enable-background:new    ;"
   width="412"
   height="508"
   xlink:href="../Venturimeter%20Exp/C52FA7C7.png"
   transform="matrix(9.887402e-02 0 0 9.887402e-02 557.2469 485.3879)"
   id="image3082">
			</image>
		</g>
	</g>
	<g
   id="g3092">
		<g
   id="g3090">
			
				<image
   style="overflow:visible;enable-background:new    ;"
   width="168"
   height="503"
   xlink:href="../Venturimeter%20Exp/C52FA7CF.png"
   transform="matrix(3.819093e-02 0 0 3.819093e-02 574.4069 471.5281)"
   id="image3088">
			</image>
		</g>
	</g>
	<g
   id="g3098">
		<g
   id="g3096">
			
				<image
   style="overflow:visible;enable-background:new    ;"
   width="503"
   height="188"
   xlink:href="../Venturimeter%20Exp/C52FA7C1.png"
   transform="matrix(8.546718e-02 0 0 8.546718e-02 556.1201 465.6205)"
   id="image3094">
			</image>
		</g>
	</g>
</g>
<g
   id="Tank_Empty_Control_00000000920067168395717810000001351023711700812424_">
	<g
   id="g3105">
		<g
   id="g3103">
			
				<image
   style="overflow:visible;enable-background:new    ;"
   width="412"
   height="508"
   xlink:href="../Venturimeter%20Exp/C52FA7C7.png"
   transform="matrix(9.887402e-02 0 0 9.887402e-02 909.639 193.3863)"
   id="image3101">
			</image>
		</g>
	</g>
	<g
   id="g3111">
		<g
   id="g3109">
			
				<image
   style="overflow:visible;enable-background:new    ;"
   width="168"
   height="503"
   xlink:href="../Venturimeter%20Exp/C52FA7CF.png"
   transform="matrix(3.819093e-02 0 0 3.819093e-02 926.799 179.5265)"
   id="image3107">
			</image>
		</g>
	</g>
	<g
   id="g3117">
		<g
   id="g3115">
			
				<image
   style="overflow:visible;enable-background:new    ;"
   width="503"
   height="188"
   xlink:href="../Venturimeter%20Exp/C52FA7C1.png"
   transform="matrix(8.546718e-02 0 0 8.546718e-02 908.5121 173.6189)"
   id="image3113">
			</image>
		</g>
	</g>
</g>
<polygon
   id="Tank_Water_Left"
   class="st7"
   points="245.2,506.9 187.2,577.5 187.2,467.5 244.8,396.9 " />
<g
   id="g3125">
	<g
   id="g3123">
		
			<image
   style="overflow:visible;enable-background:new    ;"
   width="99"
   height="512"
   xlink:href="../Venturimeter%20Exp/C70F2021.png"
   transform="matrix(0.3085 0 0 0.3085 267.6958 219.7682)"
   id="image3121">
		</image>
	</g>
</g>
<rect
   id="Water_7"
   x="273.2"
   y="230.4"
   class="st7"
   width="19.6"
   height="297.1" />
<rect
   id="Tank_Water_Front"
   x="187.2"
   y="467.5"
   class="st14"
   width="344.8"
   height="110" />
<circle
   id="Corner_Top_Left"
   class="st13"
   cx="287"
   cy="221"
   r="17.4" />
<line
   class="st15"
   x1="531.8"
   y1="392.3"
   x2="187.4"
   y2="391.3"
   id="line3130" />
<g
   id="g3140">
	<g
   id="g3136">
		<g
   id="g3134">
			
				<image
   style="overflow:visible;enable-background:new    ;"
   width="513"
   height="238"
   xlink:href="../Venturimeter%20Exp/C52FA7C2.png"
   transform="matrix(0.4361 0 0 0.4361 22.5491 211.7993)"
   id="image3132">
			</image>
		</g>
	</g>
	<path
   class="st16"
   d="M208.4,301.4H55c-10.2,0-18.4-8.2-18.4-18.4v-29.5c0-10.2,8.2-18.4,18.4-18.4h153.4   c10.2,0,18.4,8.2,18.4,18.4V283C226.8,293.2,218.6,301.4,208.4,301.4z"
   id="path3138" />
</g>
<g
   id="g3150">
	<g
   id="g3146">
		<g
   id="g3144">
			
				<image
   style="overflow:visible;enable-background:new    ;"
   width="513"
   height="284"
   xlink:href="../Venturimeter%20Exp/C52FA7C3.png"
   transform="matrix(0.2182 0 0 0.2764 1055.889 131.8037)"
   id="image3142">
			</image>
		</g>
	</g>
	<path
   class="st17"
   d="M1137,203.2h-55.4c-8.4,0-15.2-8.6-15.2-19.3v-18.4c0-10.6,6.8-19.3,15.2-19.3h55.4c8.4,0,15.2,8.6,15.2,19.3   v18.4C1152.2,194.5,1145.4,203.2,1137,203.2z"
   id="path3148" />
</g>
<text
   transform="matrix(0.945 0 0 1 44.3584 275.4863)"
   class="st18 st19"
   id="text3152">00</text>
<text
   transform="matrix(1.0432 0 0 1 1094.6738 190.4902)"
   class="st18 st20"
   id="text3154">1</text>



<text
   transform="matrix(1.0432 0 0 1 1036.8877 74.6123)"
   class="st21 st22 st23"
   id="text3166"> </text>
<text
   transform="matrix(1.0432 0 0 1 1074.4434 74.6123)"
   class="st21 st22"
   id="text3168">Valve </text>
<text
   transform="matrix(1.0432 0 0 1 1036.8877 113.0117)"
   class="st21 st22"
   id="text3170">Positioning</text>

<text
   transform="matrix(1.0397 0 0 1 89.9434 197.7368)"
   class="st21 st22"
   id="text3174">Timer</text>
<text
   transform="matrix(0.945 0 0 1 111.4229 275.1348)"
   class="st18 st19"
   id="text3176">00</text>
<text
   transform="matrix(0.945 0 0 1 175.8916 275.9883)"
   class="st18 st19"
   id="text3178">00</text>
<text
   transform="matrix(0.8527 0 0 1 53.3506 293.6123)"
   class="st18 st24"
   id="text3180">min</text>
<text
   transform="matrix(0.8527 0 0 1 121.7041 292.7588)"
   class="st18 st24"
   id="text3182">sec</text>
<text
   transform="matrix(0.8527 0 0 1 188.915 292.7588)"
   class="st18 st24"
   id="text3184">ms</text>
<text
   transform="matrix(0.945 0 0 1 96.8105 271.7178)"
   class="st18 st25"
   id="text3186">:</text>
<text
   transform="matrix(0.945 0 0 1 160.4326 271.3887)"
   class="st18 st25"
   id="text3188">:</text>

<path
   class="st26"
   d="M56.1,481.5"
   id="path3289" />
<path
   class="st26"
   d="M55.8,492.4"
   id="path3291" />
<path
   class="st26"
   d="M55.8,503.7"
   id="path3293" />
<path
   class="st26"
   d="M55.8,515.4"
   id="path3295" />
<g
   id="g3353">
	<line
   class="st26"
   x1="125.4"
   y1="532.9"
   x2="195.7"
   y2="532.9"
   id="line3297" />
	<line
   class="st26"
   x1="125.4"
   y1="543.5"
   x2="195.7"
   y2="543.5"
   id="line3299" />
	<line
   class="st26"
   x1="125.4"
   y1="555.2"
   x2="195.7"
   y2="555.2"
   id="line3301" />
	<line
   class="st26"
   x1="125.4"
   y1="566.9"
   x2="195.7"
   y2="566.9"
   id="line3303" />
	<polyline
   class="st26"
   points="195.4,577.6 125.6,577.6 125.6,451.3  "
   id="polyline3305" />
	<path
   class="st26"
   d="M195.4,451.3"
   id="path3307" />
	<line
   class="st26"
   x1="125.4"
   y1="467.5"
   x2="195.7"
   y2="467.5"
   id="line3309" />
	<path
   class="st26"
   d="M196,466.6"
   id="path3311" />
	<line
   class="st26"
   x1="125.4"
   y1="478.3"
   x2="195.7"
   y2="478.3"
   id="line3313" />
	<path
   class="st26"
   d="M195.7,477.6"
   id="path3315" />
	<line
   class="st26"
   x1="125.4"
   y1="489.3"
   x2="195.7"
   y2="489.3"
   id="line3317" />
	<path
   class="st26"
   d="M195.7,488.8"
   id="path3319" />
	<line
   class="st26"
   x1="125.4"
   y1="500.9"
   x2="195.7"
   y2="500.9"
   id="line3321" />
	<path
   class="st26"
   d="M195.7,500.5"
   id="path3323" />
	<line
   class="st26"
   x1="125.4"
   y1="511.6"
   x2="195.7"
   y2="511.6"
   id="line3325" />
	<line
   class="st26"
   x1="125.4"
   y1="522.2"
   x2="195.7"
   y2="522.2"
   id="line3327" />
	<rect
   x="122.9"
   y="447.5"
   class="st27"
   width="52.9"
   height="131.7"
   id="rect3329" />
	<text
   transform="matrix(1.2422 0 0 1 157.3359 571.1006)"
   class="st18 st31"
   id="text3331">1</text>
	<text
   transform="matrix(1.2422 0 0 1 157.4961 582.2939)"
   class="st18 st31"
   id="text3333">0</text>
	<text
   transform="matrix(1.2422 0 0 1 157.3359 559.2266)"
   class="st18 st31"
   id="text3335">2</text>
	<text
   transform="matrix(1.2422 0 0 1 157.3359 547.5635)"
   class="st18 st31"
   id="text3337">3</text>
	<text
   transform="matrix(1.2422 0 0 1 157.3359 536.084)"
   class="st18 st31"
   id="text3339">4</text>
	<text
   transform="matrix(1.2422 0 0 1 157.3359 525.9385)"
   class="st18 st31"
   id="text3341">5</text>
	<text
   transform="matrix(1.2422 0 0 1 157.3359 515.3242)"
   class="st18 st31"
   id="text3343">6</text>
	<text
   transform="matrix(1.2422 0 0 1 157.3359 505.1426)"
   class="st18 st31"
   id="text3345">7</text>
	<text
   transform="matrix(1.2422 0 0 1 157.3359 493.5322)"
   class="st18 st31"
   id="text3347">8</text>
	<text
   transform="matrix(1.2422 0 0 1 157.3359 482.374)"
   class="st18 st31"
   id="text3349">9</text>
	<text
   transform="matrix(1.2422 0 0 1 153.3359 471.2979)"
   class="st18 st31"
   id="text3351">10</text>
</g>



<g
   id="g3363">
	<rect
   x="127.7"
   y="577.7"
   width="15.8"
   height="3.2"
   id="rect3359" />
	<polyline
   points="143.5,573.3 151.6,579.3 143.5,585.3  "
   id="polyline3361" />
</g>
<g
   id="g3369">
	<rect
   x="608.9"
   y="455.6"
   transform="matrix(0.4766 -0.8791 0.8791 0.4766 -76.1321 790.0149)"
   width="33.1"
   height="6.7"
   id="rect3365" />
	<polyline
   points="628.6,479.5 609.5,488.4 606.5,467.5  "
   id="polyline3367" />
</g>
<g
   id="g3375">
	<rect
   x="962.2"
   y="138.6"
   transform="matrix(0.4829 -0.8757 0.8757 0.4829 381.8118 930.4606)"
   width="33.1"
   height="6.7"
   id="rect3371" />
	<polyline
   points="981.8,162.5 962.6,171.3 959.8,150.4  "
   id="polyline3373" />
</g>
<g
   id="g3381">
	<rect
   x="1012.9"
   y="356.8"
   class="st33"
   width="3.2"
   height="15.8"
   id="rect3377" />
	<polyline
   class="st33"
   points="1008.5,356.8 1014.5,348.6 1020.5,356.8  "
   id="polyline3379" />
</g>
<g
   id="g3387">
	<rect
   x="1012.9"
   y="273.8"
   class="st33"
   width="3.2"
   height="15.8"
   id="rect3383" />
	<polyline
   class="st33"
   points="1008.5,273.8 1014.5,265.6 1020.5,273.8  "
   id="polyline3385" />
</g>
<g
   id="g3393"
   transform="translate(22)">
	<rect
   x="545"
   y="216.5"
   class="st33"
   width="15.8"
   height="3.2"
   id="rect3389" />
	<polyline
   class="st33"
   points="545.1,224.1 536.9,218.1 545.1,212  "
   id="polyline3391" />
</g>
<g
   id="g3399">
	<rect
   x="866.4"
   y="216.1"
   class="st33"
   width="15.8"
   height="3.2"
   id="rect3395" />
	<polyline
   class="st33"
   points="866.4,223.7 858.2,217.7 866.4,211.7  "
   id="polyline3397" />
</g>


<g
   id="g3417"
   transform="translate(10)">
	<rect
   x="462"
   y="216.5"
   class="st33"
   width="15.8"
   height="3.2"
   id="rect3413" />
	<polyline
   class="st33"
   points="462.1,224.1 453.9,218.1 462.1,212  "
   id="polyline3415" />
</g>
<g
   id="g3423"
   transform="translate(-2)">
	<rect
   x="379"
   y="216.5"
   class="st33"
   width="15.8"
   height="3.2"
   id="rect3419" />
	<polyline
   class="st33"
   points="379.1,224.1 370.9,218.1 379.1,212  "
   id="polyline3421" />
</g>
<g
   id="g3429">
	<rect
   x="281.5"
   y="270.8"
   class="st33"
   width="3.2"
   height="15.8"
   id="rect3425" />
	<polyline
   class="st33"
   points="289,286.5 283,294.7 277,286.5  "
   id="polyline3427" />
</g>






<g
   id="Motor">
	<rect
   x="1004.4"
   y="421.7"
   class="st35"
   width="19.2"
   height="76.3"
   id="rect3459" />
	<polygon
   class="st36"
   points="998.4,484 991.1,480.1 991.1,440.3 998.4,436.4  "
   id="polygon3461" />
	<path
   class="st37"
   d="M1023.6,498L1023.6,498v-76.3l0,0c3.6,0,6.4,2.9,6.4,6.4v63.5C1030.1,495.1,1027.2,498,1023.6,498z"
   id="path3463" />
	<path
   class="st37"
   d="M1004.4,498L1004.4,498c-3.6,0-6.4-2.9-6.4-6.4v-63.5c0-3.6,2.9-6.4,6.4-6.4l0,0V498z"
   id="path3465" />
	<rect
   x="1006.3"
   y="409.5"
   class="st38"
   width="15.3"
   height="12.3"
   id="rect3467" />
	<rect
   x="1006.3"
   y="497.9"
   class="st38"
   width="15.3"
   height="12.3"
   id="rect3469" />
	<rect
   x="997.1"
   y="395.8"
   class="st39"
   width="32.9"
   height="17"
   id="rect3471" />
	
		<rect
   x="1014.6"
   y="451.3"
   transform="matrix(-1.836970e-16 1 -1 -1.836970e-16 1498.3646 -578.6849)"
   class="st39"
   width="47.8"
   height="17"
   id="rect3473" />
	<rect
   x="997.1"
   y="508.3"
   class="st39"
   width="32.9"
   height="17"
   id="rect3475" />
	<path
   class="st40"
   d="M1076.9,503.6h87c5.2,0,9.5-4.3,9.5-9.5v-69.4c0-5.2-4.3-9.5-9.5-9.5h-87c-17.9,0-32.5,14.5-32.5,32.5v23.4   C1044.4,489,1058.9,503.6,1076.9,503.6z"
   id="path3477" />
	<rect
   x="1120.1"
   y="428.5"
   class="st39"
   width="29.1"
   height="7.4"
   id="rect3479" />
	<rect
   x="1061.1"
   y="532.1"
   class="st39"
   width="94.4"
   height="7.2"
   id="rect3481" />
	<path
   class="st36"
   d="M1155.4,532.1l-94.3-0.1c3.3-0.2,14.6-1.1,24.4-10.1c7.5-6.9,10.1-15,11.1-18.5c8,0,16,0,24,0   c0.8,3.6,3,10.6,9,16.9C1139.5,530.9,1152.3,531.9,1155.4,532.1z"
   id="path3483" />
	<rect
   x="1120.1"
   y="442.4"
   class="st39"
   width="29.1"
   height="7.4"
   id="rect3485" />
	<rect
   x="1120.1"
   y="456.5"
   class="st39"
   width="29.1"
   height="7.4"
   id="rect3487" />
	<rect
   x="1120.1"
   y="469.9"
   class="st39"
   width="29.1"
   height="7.4"
   id="rect3489" />
	<rect
   x="1120.1"
   y="483.3"
   class="st39"
   width="29.1"
   height="7.4"
   id="rect3491" />
</g>
<g
   id="g3679"
   transform="translate(234)">
	<rect
   x="545"
   y="216.5"
   class="st33"
   width="15.8"
   height="3.2"
   id="rect3675" />
	<polyline
   class="st33"
   points="545.1,224.1 536.9,218.1 545.1,212  "
   id="polyline3677" />
</g><g
   id="g3685"
   transform="translate(128)">
	<rect
   x="545"
   y="216.5"
   class="st33"
   width="15.8"
   height="3.2"
   id="rect3681" />
	<polyline
   class="st33"
   points="545.1,224.1 536.9,218.1 545.1,212  "
   id="polyline3683" />
</g></svg>
