<?xml version="1.0" encoding="utf-8"?>
<!-- Generator: Adobe Illustrator 27.9.0, SVG Export Plug-In . SVG Version: 6.00 Build 0)  -->
<svg version="1.1" id="Layer_1" xmlns="http://www.w3.org/2000/svg" xmlns:xlink="http://www.w3.org/1999/xlink" x="0px" y="0px"
	 viewBox="0 0 1607.7 847.7" style="enable-background:new 0 0 1607.7 847.7;" xml:space="preserve">
<style type="text/css">
	.st0{enable-background:new    ;}
	.st1{fill:#005460;}
	.st2{fill:#005D6B;}
	.st3{fill:#808080;}
	.st4{fill:#8F8F8F;}
	.st5{fill:#E9E9E9;}
	.st6{fill:#0098AE;}
	.st7{fill:#8AE3FF;}
	.st8{fill:#00554F;}
	.st9{fill:#005F58;}
	.st10{opacity:0.9;}
	.st11{fill:#6C5223;}
	.st12{fill:#EE362B;}
	.st13{fill:#231F20;}
	.st14{fill:#1A2D58;}
	.st15{fill:#F1FF8D;stroke:#F1FFA1;stroke-width:3;stroke-miterlimit:10;}
	.st16{fill:#081835;}
	.st17{fill:none;stroke:#005F58;stroke-width:3;stroke-miterlimit:10;}
	.st18{fill:#FFFFFF;stroke:#FFFFFF;stroke-width:2;stroke-miterlimit:10;}
	.st19{fill:#FFFFFF;stroke:#000000;stroke-width:2;stroke-miterlimit:10;}
	.st20{font-family:'ArialMT';}
	.st21{font-size:45.7156px;}
	.st22{font-size:45px;}
	.st23{font-size:22px;}
	.st24{font-family:'TimesNewRomanPS-BoldMT';}
	.st25{font-size:19.7019px;}
	.st26{font-size:47.7148px;}
	.st27{fill:none;stroke:#23005F;stroke-width:0.75;stroke-miterlimit:10;}
	.st28{fill:#FFFFFF;}
	.st29{font-size:10.7074px;}
	.st30{fill:#332310;}
	.st31{fill:none;stroke:#231F20;stroke-width:2;stroke-miterlimit:10;}
	.st32{fill:#828487;}
	.st33{fill:#FFFFFF;stroke:#231F20;stroke-width:2;stroke-miterlimit:10;}
	.st34{fill:#962511;}
	.st35{fill:#3B3C3C;}
	.st36{font-size:13.5736px;}
	.st37{font-size:34.7385px;}
</style>
<g>
	<g>
		<g>
			
				<image style="overflow:visible;enable-background:new    ;" width="1067" height="118" xlink:href="B5BEEBF3.png"  transform="matrix(0.999 0 0 0.999 185.5744 680.2949)">
			</image>
		</g>
	</g>
</g>
<g>
	<g>
		
			<image style="overflow:visible;enable-background:new    ;" width="646" height="271" xlink:href="B5BEEBF1.png"  transform="matrix(0.9981 0 0 0.9981 595.6044 503.8862)">
		</image>
	</g>
</g>
<g>
	<g>
		
			<image style="overflow:visible;enable-background:new    ;" width="88" height="511" xlink:href="B5BEEBFE.png"  transform="matrix(0.4891 0 0 0.4891 222.0019 540.2811)">
		</image>
	</g>
</g>
<g>
	<g>
		
			<image style="overflow:visible;enable-background:new    ;" width="86" height="512" xlink:href="B5BEEBFF.png"  transform="matrix(0.4885 0 0 0.4885 267.6013 488.3259)">
		</image>
	</g>
</g>
<g>
	<g>
		
			<image style="overflow:visible;enable-background:new    ;" width="88" height="512" xlink:href="B5BEEBF2.png"  transform="matrix(0.4881 0 0 0.4881 514.9359 488.4066)">
		</image>
	</g>
</g>
<g>
	<g>
		
			<image style="overflow:visible;enable-background:new    ;" width="88" height="512" xlink:href="B5BEEBF5.png"  transform="matrix(0.4881 0 0 0.4881 469.8518 541.2742)">
		</image>
	</g>
</g>
<g>
	<g>
		<g class="st0">
			<g>
				<polygon class="st1" points="588,508 588,523.5 245.6,522.3 245.6,506.9 				"/>
			</g>
			<g>
				<polygon class="st2" points="245.6,506.9 245.6,522.3 188.4,589.7 188.4,574.2 				"/>
			</g>
			<g>
				<polygon class="st3" points="530.7,575.4 530.7,590.8 188.4,589.7 188.4,574.2 				"/>
			</g>
			<g>
				<polygon class="st4" points="588,508 588,523.5 530.7,590.8 530.7,575.4 				"/>
			</g>
			<g>
				<polygon class="st5" points="245.6,506.9 588,508 530.7,575.4 188.4,574.2 				"/>
			</g>
			<g>
				<polygon class="st1" points="531.2,576.3 531.2,591.8 186.3,590.6 186.3,575.1 				"/>
			</g>
			<g>
				<polygon class="st2" points="590.1,507.1 590.1,522.5 531.2,591.8 531.2,576.3 				"/>
			</g>
			<g>
				<path class="st6" d="M245.1,505.9l344.9,1.2l-58.9,69.2l-344.9-1.2L245.1,505.9z M530.7,575.4l57.2-67.3l-342.4-1.2l-57.2,67.3
					L530.7,575.4"/>
			</g>
		</g>
	</g>
</g>
<polygon id="Water_Tank_Base" class="st7" points="530.5,576.7 188.2,574.9 245.8,507.2 588.1,508.9 "/>
<g>
	<g>
		<g class="st0">
			<g>
				<polygon class="st8" points="245,321.1 590,322.3 590,507.7 245,506.5 				"/>
			</g>
			<g>
				<polygon class="st8" points="587.9,323.2 587.9,508.6 245.5,507.5 245.5,322 				"/>
			</g>
			<g>
				<polygon class="st3" points="245.5,322 587.9,323.2 587.9,508.6 245.5,507.5 				"/>
			</g>
			<g>
				<polygon class="st9" points="186.2,390.3 245,321.1 245,506.5 186.2,575.7 				"/>
			</g>
			<g>
				<polygon class="st9" points="245.5,322 245.5,507.5 188.3,574.8 188.3,389.4 				"/>
			</g>
			<g>
				<polygon class="st4" points="188.3,389.4 245.5,322 245.5,507.5 188.3,574.8 				"/>
			</g>
			<g>
				<polygon class="st9" points="530.6,390.6 587.9,323.2 587.9,508.6 530.6,576 				"/>
			</g>
			<g>
				<polygon class="st4" points="587.9,323.2 587.9,508.6 530.6,576 530.6,390.6 				"/>
			</g>
		</g>
	</g>
</g>
<g>
	<g>
		
			<image style="overflow:visible;enable-background:new    ;" width="509" height="153" xlink:href="C70F2020.png"  transform="matrix(0.1965 0 0 0.1965 591.0237 495.538)">
		</image>
	</g>
</g>
<g class="st10">
	<g>
		
			<image style="overflow:visible;enable-background:new    ;" width="512" height="128" xlink:href="C70F202F.png"  transform="matrix(0.6774 0 0 0.6774 893.2593 503.8959)">
		</image>
	</g>
</g>
<g>
	<g>
		
			<image style="overflow:visible;enable-background:new    ;" width="54" height="511" xlink:href="C52FA6DB.png"  transform="matrix(0.5752 0 0 0.4668 1084.9247 216.2723)">
		</image>
	</g>
</g>
<g>
	<g>
		
			<image style="overflow:visible;enable-background:new    ;" width="513" height="43" xlink:href="C52FA6DD.png"  transform="matrix(1.6162 0 0 0.6978 278.412 202.8737)">
		</image>
	</g>
</g>
<g>
	<g>
		
			<image style="overflow:visible;enable-background:new    ;" width="209" height="510" xlink:href="C52FA74A.png"  transform="matrix(0.1416 0 0 0.2556 957.6578 446.1937)">
		</image>
	</g>
</g>
<g>
	<g>
		
			<image style="overflow:visible;enable-background:new    ;" width="212" height="510" xlink:href="C52FA74F.png"  transform="matrix(0.1413 0 0 0.1413 676.5494 510.5391)">
		</image>
	</g>
</g>
<rect id="Water_1" x="963" y="442" class="st11" width="19.6" height="128.4"/>
<g>
	<g>
		
			<image style="overflow:visible;" width="458" height="512" xlink:href="82B9E152.png"  transform="matrix(0.459 0 0 0.459 1312.9912 281.2002)">
		</image>
	</g>
</g>
<g>
	<g>
		
			<image style="overflow:visible;" width="512" height="512" xlink:href="82B9E148.png"  transform="matrix(7.031250e-02 0 0 7.031250e-02 1353.5046 451.9)">
		</image>
	</g>
</g>
<g>
	<g>
		
			<image style="overflow:visible;" width="512" height="512" xlink:href="82B9E149.png"  transform="matrix(7.226562e-02 0 0 7.226562e-02 1438.3086 451.4)">
		</image>
	</g>
</g>
<g>
	<g>
		<g>
			
				<image style="overflow:visible;" width="309" height="87" xlink:href="82B9E14A.png"  transform="matrix(1 0 0 1 1063.8754 465.4811)">
			</image>
		</g>
	</g>
	<g>
		<g>
			
				<image style="overflow:visible;" width="409" height="122" xlink:href="82B9E14B.png"  transform="matrix(1 0 0 1 1050.3926 463.1199)">
			</image>
		</g>
	</g>
</g>
<circle class="st12" cx="1370.7" cy="469.9" r="8.5"/>
<circle class="st13" cx="1455.9" cy="469.9" r="8.5"/>
<circle class="st14" cx="1035.7" cy="444.4" r="45.9"/>
<g>
	<g>
		
			<image style="overflow:visible;enable-background:new    ;" width="209" height="510" xlink:href="C52FA74A.png"  transform="matrix(4.559850e-18 -0.1416 9.103938e-02 1.059995e-17 971.4463 459.6317)">
		</image>
	</g>
</g>
<rect id="Water_1_00000163753905908877626020000003479014551040225680_" x="970" y="434.7" class="st11" width="45.7" height="19.6"/>
<g>
	<g>
		
			<image style="overflow:visible;enable-background:new    ;" width="209" height="510" xlink:href="C52FA74A.png"  transform="matrix(4.559850e-18 -0.1416 9.103938e-02 1.059995e-17 1053.2281 459.6317)">
		</image>
	</g>
</g>
<rect id="Water_1_00000136396046987390455760000007072309054103299726_" x="1051.7" y="434.7" class="st11" width="45.7" height="19.6"/>
<rect id="Water_9" x="681.6" y="521.8" class="st11" width="19.6" height="56.8"/>
<rect id="Water_3" x="1091.7" y="230.1" class="st11" width="19.6" height="221.7"/>
<rect id="Water_8" x="594.6" y="501" class="st11" width="87.2" height="19.6"/>
<circle id="Tank_Empty_Corner" class="st15" cx="687.8" cy="514.5" r="17.4"/>
<rect id="Water_6" x="479.1" y="208.6" class="st11" width="609.7" height="19.6"/>
<rect id="Water_6_00000031895259565718519450000002633402985714315677_" x="296.6" y="208.6" class="st11" width="160.4" height="19.6"/>
<circle id="Corner_Top_Right" class="st15" cx="1100.6" cy="220.9" r="17.4"/>
<circle id="Corner_Top_Right_00000092450821481725035270000005663819649088379284_" class="st15" cx="1100.6" cy="443.1" r="17.4"/>
<ellipse id="Suction_Pipe_Opening" class="st11" cx="972.8" cy="571.7" rx="9.8" ry="3"/>
<ellipse id="Tank_Empty_End" class="st11" cx="691.5" cy="578.5" rx="9.8" ry="3"/>
<polygon id="Tank_Water_Back" class="st11" points="245.1,398.1 587.9,399 587.9,508.1 245.1,508.1 "/>
<polygon id="Tank_Water_Left" class="st11" points="245.2,506.9 187.2,577.5 187.2,467.5 244.8,396.9 "/>
<g>
	<g>
		
			<image style="overflow:visible;enable-background:new    ;" width="99" height="512" xlink:href="C70F2021.png"  transform="matrix(0.3085 0 0 0.3085 267.6958 219.7682)">
		</image>
	</g>
</g>
<g>
	<rect x="990.7" y="516.4" class="st16" width="94.4" height="7.2"/>
	<path class="st14" d="M1085,516.4l-94.3-0.1c3.3-0.2,14.6-1.1,24.4-10.1c7.5-6.9,10.1-15,11.1-18.5c8,0,16,0,24,0
		c0.8,3.6,3,10.6,9,16.9C1069.1,515.2,1081.9,516.2,1085,516.4z"/>
</g>
<rect id="Water_7" x="273.2" y="230.4" class="st11" width="19.6" height="297.1"/>
<rect id="Tank_Water_Front" x="187.2" y="467.5" class="st11" width="344.8" height="110"/>
<g>
	<polygon class="st1" points="590.1,322.1 590.1,507.5 531.2,576.7 531.2,391.3 	"/>
</g>
<g id="Tank_Empty_Control_00000000920067168395717810000001351023711700812424_">
	<g>
		<g>
			
				<image style="overflow:visible;enable-background:new    ;" width="412" height="508" xlink:href="C52FA7C7.png"  transform="matrix(9.887402e-02 0 0 9.887402e-02 439.7879 193.3863)">
			</image>
		</g>
	</g>
	<g>
		<g>
			
				<image style="overflow:visible;enable-background:new    ;" width="168" height="503" xlink:href="C52FA7CF.png"  transform="matrix(3.819093e-02 0 0 3.819093e-02 456.9479 179.5265)">
			</image>
		</g>
	</g>
	<g>
		<g>
			
				<image style="overflow:visible;enable-background:new    ;" width="503" height="188" xlink:href="C52FA7C1.png"  transform="matrix(8.546718e-02 0 0 8.546718e-02 438.661 173.6189)">
			</image>
		</g>
	</g>
</g>
<g id="Tank_Empty_Control">
	<g>
		<g>
			
				<image style="overflow:visible;enable-background:new    ;" width="412" height="508" xlink:href="C52FA7C7.png"  transform="matrix(9.887402e-02 0 0 9.887402e-02 557.2469 485.3879)">
			</image>
		</g>
	</g>
	<g>
		<g>
			
				<image style="overflow:visible;enable-background:new    ;" width="168" height="503" xlink:href="C52FA7CF.png"  transform="matrix(3.819093e-02 0 0 3.819093e-02 574.4069 471.5281)">
			</image>
		</g>
	</g>
	<g>
		<g>
			
				<image style="overflow:visible;enable-background:new    ;" width="503" height="188" xlink:href="C52FA7C1.png"  transform="matrix(8.546718e-02 0 0 8.546718e-02 556.1201 465.6205)">
			</image>
		</g>
	</g>
</g>
<circle id="Corner_Top_Left" class="st15" cx="287" cy="221" r="17.4"/>
<line class="st17" x1="531.8" y1="392.3" x2="187.4" y2="391.3"/>
<g>
	<g>
		<g>
			
				<image style="overflow:visible;enable-background:new    ;" width="513" height="238" xlink:href="C52FA7C2.png"  transform="matrix(0.4361 0 0 0.4361 22.5491 211.7993)">
			</image>
		</g>
	</g>
	<path class="st18" d="M208.4,301.4H55c-10.2,0-18.4-8.2-18.4-18.4v-29.5c0-10.2,8.2-18.4,18.4-18.4h153.4
		c10.2,0,18.4,8.2,18.4,18.4V283C226.8,293.2,218.6,301.4,208.4,301.4z"/>
</g>
<g>
	<g>
		<g>
			
				<image style="overflow:visible;enable-background:new    ;" width="513" height="284" xlink:href="C52FA7C3.png"  transform="matrix(0.172 0 0 0.2178 516.5432 134.1377)">
			</image>
		</g>
	</g>
	<path class="st19" d="M580.5,190.4h-43.7c-6.6,0-12-6.8-12-15.2v-14.5c0-8.4,5.4-15.2,12-15.2h43.7c6.6,0,12,6.8,12,15.2v14.5
		C592.4,183.5,587.1,190.4,580.5,190.4z"/>
</g>
<text transform="matrix(0.945 0 0 1 44.3584 275.4863)" class="st20 st21">00</text>
<text transform="matrix(1.0432 0 0 1 546.1334 182.9585)" class="st20 st22">1</text>
<g>
	<g>
		
			<image style="overflow:visible;enable-background:new    ;" width="515" height="174" xlink:href="C52FA7C4.png"  transform="matrix(0.2967 0 0 0.2967 785.1161 443.0744)">
		</image>
	</g>
</g>
<path class="st19" d="M916.9,490.1H805c-6.8,0-12.4-5.5-12.4-12.4v-13c0-6.8,5.5-12.4,12.4-12.4h111.9c6.8,0,12.4,5.5,12.4,12.4v13
	C929.2,484.6,923.7,490.1,916.9,490.1z"/>
<text transform="matrix(0.9887 0 0 1 802.7199 478.6152)" class="st20 st23">100 mm Hg</text>
<g>
	<g>
		
			<image style="overflow:visible;enable-background:new    ;" width="515" height="174" xlink:href="C52FA7C4.png"  transform="matrix(0.2967 0 0 0.2967 1132.4028 211.7635)">
		</image>
	</g>
</g>
<path class="st19" d="M1264.2,258.8h-111.9c-6.8,0-12.4-5.5-12.4-12.4v-13c0-6.8,5.5-12.4,12.4-12.4h111.9c6.8,0,12.4,5.5,12.4,12.4
	v13C1276.5,253.3,1271,258.8,1264.2,258.8z"/>
<text transform="matrix(0.9887 0 0 1 1144.8983 247.3044)" class="st20 st23"> 0.0 kg/cm^2</text>
<text transform="matrix(1.0432 0 0 1 532.6061 95.1841)" class="st0"><tspan x="0" y="0" class="st24 st23">Valve</tspan><tspan x="-25.7" y="26.4" class="st24 st23">Positioning</tspan></text>
<text transform="matrix(1.0397 0 0 1 782.0849 404.8921)" class="st0"><tspan x="0" y="0" class="st24 st23">Vaccum Pressure</tspan><tspan x="9.7" y="26.4" class="st24 st23">Gauge Reading</tspan></text>
<text transform="matrix(1.0397 0 0 1 1134.2634 170.4029)" class="st0"><tspan x="0" y="0" class="st24 st23">Pressure Gauge</tspan><tspan x="35.1" y="26.4" class="st24 st23">Reading</tspan></text>
<text transform="matrix(1.0397 0 0 1 633.9343 428.9559)" class="st0"><tspan x="0" y="0" class="st24 st23">Discharge</tspan><tspan x="20.2" y="26.4" class="st24 st23">Valve</tspan></text>
<text transform="matrix(1.0397 0 0 1 416.2888 114.5022)" class="st0"><tspan x="0" y="0" class="st24 st23">Gate</tspan><tspan x="-4.3" y="26.4" class="st24 st23">Valve</tspan></text>
<text transform="matrix(1.0397 0 0 1 97.3145 198.0225)" class="st24 st23">Timer 1</text>
<text transform="matrix(1.0397 0 0 1 1346.8958 265.2888)" class="st24 st23">Electric Meter</text>
<text transform="matrix(0.945 0 0 1 111.4229 275.1348)" class="st20 st21">00</text>
<text transform="matrix(0.945 0 0 1 175.8916 275.9883)" class="st20 st21">00</text>
<text transform="matrix(0.8527 0 0 1 53.3506 293.6123)" class="st20 st25">min</text>
<text transform="matrix(0.8527 0 0 1 121.7041 292.7588)" class="st20 st25">sec</text>
<text transform="matrix(0.8527 0 0 1 188.915 292.7588)" class="st20 st25">ms</text>
<text transform="matrix(0.945 0 0 1 96.8105 271.7178)" class="st20 st26">:</text>
<text transform="matrix(0.945 0 0 1 160.4326 271.3887)" class="st20 st26">:</text>
<g>
	<g>
		<g>
			
				<image style="overflow:visible;enable-background:new    ;" width="513" height="238" xlink:href="C52FA7C2.png"  transform="matrix(0.4361 0 0 0.4361 1327.3317 620.2387)">
			</image>
		</g>
	</g>
	<path class="st18" d="M1513.2,709.8h-153.4c-10.2,0-18.4-8.2-18.4-18.4v-29.5c0-10.2,8.2-18.4,18.4-18.4h153.4
		c10.2,0,18.4,8.2,18.4,18.4v29.5C1531.6,701.6,1523.4,709.8,1513.2,709.8z"/>
</g>
<text transform="matrix(0.945 0 0 1 1349.141 683.9257)" class="st20 st21">00</text>
<text transform="matrix(1.0397 0 0 1 1402.097 606.4619)" class="st24 st23">Timer 2</text>
<text transform="matrix(0.945 0 0 1 1416.2054 683.5742)" class="st20 st21">00</text>
<text transform="matrix(0.945 0 0 1 1480.6742 684.4277)" class="st20 st21">00</text>
<text transform="matrix(0.8527 0 0 1 1358.1332 702.0517)" class="st20 st25">min</text>
<text transform="matrix(0.8527 0 0 1 1426.4867 701.1982)" class="st20 st25">sec</text>
<text transform="matrix(0.8527 0 0 1 1493.6976 701.1982)" class="st20 st25">ms</text>
<text transform="matrix(0.945 0 0 1 1401.5931 680.1572)" class="st20 st26">:</text>
<text transform="matrix(0.945 0 0 1 1465.2152 679.8281)" class="st20 st26">:</text>
<path class="st27" d="M56.1,481.5"/>
<path class="st27" d="M55.8,492.4"/>
<path class="st27" d="M55.8,503.7"/>
<path class="st27" d="M55.8,515.4"/>
<g>
	<line class="st27" x1="125.4" y1="532.9" x2="195.7" y2="532.9"/>
	<line class="st27" x1="125.4" y1="543.5" x2="195.7" y2="543.5"/>
	<line class="st27" x1="125.4" y1="555.2" x2="195.7" y2="555.2"/>
	<line class="st27" x1="125.4" y1="566.9" x2="195.7" y2="566.9"/>
	<polyline class="st27" points="195.4,577.6 125.6,577.6 125.6,451.3 	"/>
	<path class="st27" d="M195.4,451.3"/>
	<line class="st27" x1="125.4" y1="467.5" x2="195.7" y2="467.5"/>
	<path class="st27" d="M196,466.6"/>
	<line class="st27" x1="125.4" y1="478.3" x2="195.7" y2="478.3"/>
	<path class="st27" d="M195.7,477.6"/>
	<line class="st27" x1="125.4" y1="489.3" x2="195.7" y2="489.3"/>
	<path class="st27" d="M195.7,488.8"/>
	<line class="st27" x1="125.4" y1="500.9" x2="195.7" y2="500.9"/>
	<path class="st27" d="M195.7,500.5"/>
	<line class="st27" x1="125.4" y1="511.6" x2="195.7" y2="511.6"/>
	<line class="st27" x1="125.4" y1="522.2" x2="195.7" y2="522.2"/>
	<rect x="122.9" y="447.5" class="st28" width="52.9" height="131.7"/>
	<text transform="matrix(1.2422 0 0 1 157.3359 571.1006)" class="st20 st29">1</text>
	<text transform="matrix(1.2422 0 0 1 157.4961 582.2939)" class="st20 st29">0</text>
	<text transform="matrix(1.2422 0 0 1 157.3359 559.2266)" class="st20 st29">2</text>
	<text transform="matrix(1.2422 0 0 1 157.3359 547.5635)" class="st20 st29">3</text>
	<text transform="matrix(1.2422 0 0 1 157.3359 536.084)" class="st20 st29">4</text>
	<text transform="matrix(1.2422 0 0 1 157.3359 525.9385)" class="st20 st29">5</text>
	<text transform="matrix(1.2422 0 0 1 157.3359 515.3242)" class="st20 st29">6</text>
	<text transform="matrix(1.2422 0 0 1 157.3359 505.1426)" class="st20 st29">7</text>
	<text transform="matrix(1.2422 0 0 1 157.3359 493.5322)" class="st20 st29">8</text>
	<text transform="matrix(1.2422 0 0 1 157.3359 482.374)" class="st20 st29">9</text>
	<text transform="matrix(1.2422 0 0 1 153.3359 471.2979)" class="st20 st29">10</text>
</g>
<g>
	<rect x="127.7" y="577.7" width="15.8" height="3.2"/>
	<polyline points="143.5,573.3 151.6,579.3 143.5,585.3 	"/>
</g>
<g>
	<rect x="608.9" y="455.6" transform="matrix(0.4766 -0.8791 0.8791 0.4766 -76.0818 790.0346)" width="33.1" height="6.7"/>
	<polyline points="628.6,479.5 609.5,488.4 606.5,467.5 	"/>
</g>
<g>
	<rect x="403.3" y="140" transform="matrix(0.8757 -0.4829 0.4829 0.8757 -25.0567 215.8516)" width="6.7" height="33.1"/>
	<polyline points="403.7,177.2 422.9,186 425.7,165.1 	"/>
</g>
<g>
	<rect x="1099.9" y="380.1" class="st30" width="3.2" height="15.8"/>
	<polyline class="st30" points="1095.5,380.1 1101.5,371.9 1107.5,380.1 	"/>
</g>
<g>
	<rect x="1099.9" y="272.8" class="st30" width="3.2" height="15.8"/>
	<polyline class="st30" points="1095.5,272.8 1101.5,264.6 1107.5,272.8 	"/>
</g>
<g>
	<rect x="636" y="216.5" class="st30" width="15.8" height="3.2"/>
	<polyline class="st30" points="636.1,224.1 627.9,218.1 636.1,212 	"/>
</g>
<g>
	<rect x="988.2" y="216.1" class="st30" width="15.8" height="3.2"/>
	<polyline class="st30" points="988.2,223.7 980,217.7 988.2,211.7 	"/>
</g>
<g>
	<rect x="552" y="216.5" class="st30" width="15.8" height="3.2"/>
	<polyline class="st30" points="552.1,224.1 543.9,218.1 552.1,212 	"/>
</g>
<g>
	<rect x="375" y="216.5" class="st30" width="15.8" height="3.2"/>
	<polyline class="st30" points="375.1,224.1 366.9,218.1 375.1,212 	"/>
</g>
<g>
	<rect x="889" y="216.5" class="st30" width="15.8" height="3.2"/>
	<polyline class="st30" points="889.1,224.1 880.9,218.1 889.1,212 	"/>
</g>
<g>
	<rect x="795.7" y="216.5" class="st30" width="15.8" height="3.2"/>
	<polyline class="st30" points="795.8,224.1 787.5,218.1 795.8,212 	"/>
</g>
<g>
	<rect x="713.7" y="216.5" class="st30" width="15.8" height="3.2"/>
	<polyline class="st30" points="713.8,224.1 705.5,218.1 713.8,212 	"/>
</g>
<g>
	<rect x="281.5" y="270.8" class="st30" width="3.2" height="15.8"/>
	<polyline class="st30" points="289,286.5 283,294.7 277,286.5 	"/>
</g>
<g>
	<rect x="281.5" y="336.6" class="st30" width="3.2" height="15.8"/>
	<polyline class="st30" points="289,352.4 283,360.6 277,352.4 	"/>
</g>
<g>
	<g>
		<g>
			
				<image style="overflow:visible;" width="512" height="131" xlink:href="82B9E1D0.png"  transform="matrix(9.960938e-02 0 0 9.960938e-02 1112.5116 312.8748)">
			</image>
		</g>
	</g>
	<g>
		<g>
			
				<image style="overflow:visible;" width="291" height="512" xlink:href="82B9E1D1.png"  transform="matrix(5.859375e-02 0 0 5.859375e-02 1156.3669 304.3205)">
			</image>
		</g>
	</g>
	<g>
		<g>
			
				<image style="overflow:visible;" width="274" height="512" xlink:href="82B9E1D2.png"  transform="matrix(5.859375e-02 0 0 5.859375e-02 1164.4845 304.3205)">
			</image>
		</g>
	</g>
	<g>
		<g>
			
				<image style="overflow:visible;" width="512" height="145" xlink:href="82B9E1CB.png"  transform="matrix(8.984375e-02 0 0 8.984375e-02 1176.1184 312.8855)">
			</image>
		</g>
	</g>
	<g>
		<g>
			<g>
				
					<image style="overflow:visible;" width="512" height="512" xlink:href="82B9E1CC.png"  transform="matrix(0.1328 0 0 0.1328 1213.203 285.3203)">
				</image>
			</g>
		</g>
		<g>
			<g>
				
					<image style="overflow:visible;" width="512" height="512" xlink:href="82B9E1CD.png"  transform="matrix(0.1445 0 0 0.1445 1210.203 282.3992)">
				</image>
			</g>
		</g>
		<g>
			<g>
				<line class="st31" x1="1247.2" y1="291.2" x2="1247.2" y2="296.8"/>
				<line class="st31" x1="1238.8" y1="292.6" x2="1240.4" y2="297.9"/>
				<line class="st31" x1="1231.4" y1="296.6" x2="1234.4" y2="301.1"/>
				<line class="st31" x1="1225.7" y1="302.7" x2="1229.8" y2="306.1"/>
				<line class="st31" x1="1221.9" y1="310.5" x2="1226.8" y2="312.3"/>
				<line class="st31" x1="1220.5" y1="319.4" x2="1225.7" y2="319.4"/>
				<line class="st31" x1="1221.9" y1="328.3" x2="1226.8" y2="326.5"/>
				<line class="st31" x1="1225.7" y1="336.1" x2="1229.8" y2="332.6"/>
				<line class="st31" x1="1231.4" y1="342.1" x2="1234.4" y2="337.5"/>
				<line class="st31" x1="1238.7" y1="346.1" x2="1240.4" y2="340.8"/>
				<line class="st31" x1="1247.2" y1="347.6" x2="1247.2" y2="341.9"/>
				<line class="st31" x1="1255.5" y1="346.1" x2="1254" y2="340.7"/>
				<line class="st31" x1="1262.9" y1="342.2" x2="1259.9" y2="337.5"/>
				<line class="st31" x1="1268.7" y1="336.1" x2="1264.5" y2="332.6"/>
				<line class="st31" x1="1272.4" y1="328.3" x2="1267.5" y2="326.5"/>
				<line class="st31" x1="1273.9" y1="319.4" x2="1268.6" y2="319.4"/>
			</g>
			<g>
				<line class="st31" x1="1247.2" y1="291.2" x2="1247.2" y2="296.8"/>
				<line class="st31" x1="1254.2" y1="292.2" x2="1252.9" y2="297.5"/>
				<line class="st31" x1="1260.6" y1="295" x2="1258" y2="299.9"/>
				<line class="st31" x1="1266" y1="299.4" x2="1262.4" y2="303.5"/>
				<line class="st31" x1="1270.2" y1="305" x2="1265.7" y2="308.1"/>
				<line class="st31" x1="1272.9" y1="311.8" x2="1267.9" y2="313.4"/>
				<line class="st31" x1="1273.9" y1="319.4" x2="1268.6" y2="319.4"/>
			</g>
		</g>
		<polygon class="st32" points="1246.3,320.7 1255.5,329.8 1254.2,331.2 1259.5,332.3 1258.2,327 1256.8,328.4 1247.7,319.2 		"/>
		<circle class="st13" cx="1246.3" cy="319.4" r="5"/>
	</g>
</g>
<g>
	<g>
		<g>
			
				<image style="overflow:visible;" width="512" height="131" xlink:href="82B9E1CE.png"  transform="matrix(9.960938e-02 0 0 9.960938e-02 922.2192 540.6537)">
			</image>
		</g>
	</g>
	<g>
		<g>
			
				<image style="overflow:visible;" width="256" height="512" xlink:href="82B9E1CF.png"  transform="matrix(5.859375e-02 0 0 5.859375e-02 913.3383 532.0992)">
			</image>
		</g>
	</g>
	<g>
		<g>
			
				<image style="overflow:visible;" width="274" height="512" xlink:href="82B9E194.png"  transform="matrix(5.859375e-02 0 0 5.859375e-02 905.1916 532.0991)">
			</image>
		</g>
	</g>
	<g>
		<g>
			
				<image style="overflow:visible;" width="512" height="145" xlink:href="82B9E18C.png"  transform="matrix(8.984375e-02 0 0 8.984375e-02 863.6124 540.6645)">
			</image>
		</g>
	</g>
	<g>
		<g>
			<g>
				
					<image style="overflow:visible;" width="512" height="512" xlink:href="82B9E18B.png"  transform="matrix(0.1328 0 0 0.1328 804.5278 513.0992)">
				</image>
			</g>
		</g>
		<g>
			<g>
				
					<image style="overflow:visible;" width="512" height="512" xlink:href="82B9E18A.png"  transform="matrix(0.1445 0 0 0.1445 801.5278 510.1782)">
				</image>
			</g>
		</g>
		<g>
			<g>
				<line class="st31" x1="838.5" y1="519" x2="838.5" y2="524.6"/>
				<line class="st31" x1="846.9" y1="520.4" x2="845.4" y2="525.7"/>
				<line class="st31" x1="854.3" y1="524.4" x2="851.3" y2="528.9"/>
				<line class="st31" x1="860" y1="530.5" x2="856" y2="533.9"/>
				<line class="st31" x1="863.8" y1="538.2" x2="859" y2="540"/>
				<line class="st31" x1="865.2" y1="547.2" x2="860" y2="547.2"/>
				<line class="st31" x1="863.8" y1="556" x2="859" y2="554.2"/>
				<line class="st31" x1="860" y1="563.9" x2="855.9" y2="560.4"/>
				<line class="st31" x1="854.3" y1="569.9" x2="851.3" y2="565.3"/>
				<line class="st31" x1="847" y1="573.9" x2="845.4" y2="568.6"/>
				<line class="st31" x1="838.5" y1="575.4" x2="838.5" y2="569.6"/>
				<line class="st31" x1="830.2" y1="573.9" x2="831.8" y2="568.5"/>
				<line class="st31" x1="822.8" y1="569.9" x2="825.8" y2="565.3"/>
				<line class="st31" x1="817" y1="563.9" x2="821.2" y2="560.4"/>
				<line class="st31" x1="813.3" y1="556" x2="818.2" y2="554.2"/>
				<line class="st31" x1="811.9" y1="547.2" x2="817.1" y2="547.2"/>
			</g>
			<g>
				<line class="st31" x1="838.5" y1="519" x2="838.5" y2="524.6"/>
				<line class="st31" x1="831.5" y1="520" x2="832.8" y2="525.3"/>
				<line class="st31" x1="825.2" y1="522.8" x2="827.7" y2="527.6"/>
				<line class="st31" x1="819.7" y1="527.2" x2="823.3" y2="531.2"/>
				<line class="st31" x1="815.5" y1="532.8" x2="820" y2="535.8"/>
				<line class="st31" x1="812.8" y1="539.6" x2="817.9" y2="541.2"/>
				<line class="st31" x1="811.9" y1="547.2" x2="817.1" y2="547.2"/>
			</g>
		</g>
		<polygon class="st32" points="839.4,548.5 830.3,557.6 831.5,559 826.2,560.1 827.5,554.8 828.9,556.2 838.1,547 		"/>
		<circle class="st13" cx="839.4" cy="547.2" r="5"/>
	</g>
</g>
<circle id="Corner_Top_Right_00000145058272323416729500000006327269023071857045_" class="st15" cx="972.4" cy="546.7" r="13.6"/>
<circle id="Corner_Top_Right_00000093856824279641147160000001388329747997414277_" class="st15" cx="975.3" cy="447" r="15.8"/>
<circle id="Corner_Top_Right_00000180334648999684852560000000307738602340320916_" class="st15" cx="1100.5" cy="319.4" r="13.7"/>
<circle class="st33" cx="1416.3" cy="372.5" r="64.6"/>
<g>
	<g>
		
			<image style="overflow:visible;" width="512" height="512" xlink:href="82B9E187.png"  transform="matrix(0.1191 0 0 0.1191 1005.1848 414.3345)">
		</image>
	</g>
</g>
<g>
	<g>
		
			<image style="overflow:visible;" width="512" height="490" xlink:href="82B9E1F0.png"  transform="matrix(0.1309 0 0 0.1309 1002.1848 412.2296)">
		</image>
	</g>
</g>
<path class="st11" d="M1059.1,474.4h-47.3c-3.4,0-6.2-2.8-6.2-6.2v-47.3c0-3.4,2.8-6.2,6.2-6.2h47.3c3.4,0,6.2,2.8,6.2,6.2v47.3
	C1065.4,471.6,1062.6,474.4,1059.1,474.4z"/>
<polygon class="st30" points="1047.3,416 1049.9,421.2 1054.4,417.6 1054.7,423.4 1060.3,421.8 1058.2,427.3 1064,428.1 
	1059.8,432.2 1064.7,435.4 1059.3,437.4 1062.5,442.3 1056.7,442 1057.6,447.7 1052.4,445 1051,450.7 1047.3,446.1 1043.7,450.7 
	1042.2,445 1037,447.7 1038,442 1032.2,442.3 1035.4,437.4 1029.9,435.4 1034.8,432.2 1030.7,428.1 1036.4,427.3 1034.3,421.8 
	1039.9,423.4 1040.2,417.6 1044.7,421.2 "/>
<g>
	<g>
		<g>
			
				<image style="overflow:visible;" width="512" height="512" xlink:href="82B9E1F1.png"  transform="matrix(0.252 0 0 0.252 1351.6577 308.4838)">
			</image>
		</g>
	</g>
	<g>
		<rect x="1414.7" y="393.9" class="st34" width="3.2" height="15.8"/>
		<polyline class="st34" points="1410.3,409.7 1416.3,417.9 1422.3,409.7 		"/>
	</g>
</g>
<polygon class="st30" points="1024.1,437 1026.7,442.2 1031.2,438.5 1031.5,444.3 1037.1,442.8 1035,448.2 1040.7,449.1 
	1036.6,453.2 1041.5,456.3 1036,458.4 1039.2,463.2 1033.4,462.9 1034.4,468.6 1029.2,466 1027.7,471.6 1024.1,467.1 1020.4,471.6 
	1019,466 1013.8,468.6 1014.7,462.9 1008.9,463.2 1012.1,458.4 1006.7,456.3 1011.6,453.2 1007.4,449.1 1013.2,448.2 1011.1,442.8 
	1016.7,444.3 1017,438.5 1021.5,442.2 "/>
<g>
	<g>
		<line class="st31" x1="1416.2" y1="306.7" x2="1416.2" y2="319.4"/>
		<line class="st31" x1="1396.9" y1="309.8" x2="1400.5" y2="322"/>
		<line class="st31" x1="1380.1" y1="319" x2="1386.9" y2="329.3"/>
		<line class="st31" x1="1367" y1="333" x2="1376.3" y2="340.7"/>
		<line class="st31" x1="1358.2" y1="350.7" x2="1369.4" y2="354.8"/>
		<line class="st31" x1="1355.1" y1="371.1" x2="1367" y2="371.1"/>
		<line class="st31" x1="1358.2" y1="391.4" x2="1369.4" y2="387.3"/>
		<line class="st31" x1="1367" y1="409.3" x2="1376.5" y2="401.4"/>
		<line class="st31" x1="1380.1" y1="423" x2="1386.9" y2="412.5"/>
		<line class="st31" x1="1396.7" y1="432.3" x2="1400.5" y2="420.1"/>
		<line class="st31" x1="1416.2" y1="435.6" x2="1416.2" y2="422.5"/>
		<line class="st31" x1="1435.2" y1="432.3" x2="1431.6" y2="419.9"/>
		<line class="st31" x1="1452.1" y1="423.2" x2="1445.2" y2="412.5"/>
		<line class="st31" x1="1465.3" y1="409.3" x2="1455.7" y2="401.4"/>
		<line class="st31" x1="1473.9" y1="391.4" x2="1462.6" y2="387.3"/>
		<line class="st31" x1="1477.2" y1="371.1" x2="1465.1" y2="371.1"/>
	</g>
	<g>
		<line class="st31" x1="1416.2" y1="306.7" x2="1416.2" y2="319.4"/>
		<line class="st31" x1="1432.1" y1="308.9" x2="1429.2" y2="321.1"/>
		<line class="st31" x1="1446.8" y1="315.3" x2="1440.9" y2="326.4"/>
		<line class="st31" x1="1459.1" y1="325.4" x2="1450.9" y2="334.7"/>
		<line class="st31" x1="1468.8" y1="338.3" x2="1458.4" y2="345.2"/>
		<line class="st31" x1="1474.9" y1="353.8" x2="1463.4" y2="357.4"/>
		<line class="st31" x1="1477.2" y1="371.1" x2="1465.1" y2="371.1"/>
	</g>
</g>
<g>
	<g>
		<path class="st35" d="M1416.3,306.8c-35.7,0-64.6,28.9-64.6,64.6c0,9.6,2.1,18.6,5.8,26.8h117.5c3.7-8.2,5.8-17.2,5.8-26.8
			C1480.9,335.7,1452,306.8,1416.3,306.8z"/>
	</g>
</g>
<path class="st18" d="M1441.6,391.2h-51.2c-3.4,0-6.1-4.2-6.1-9.4v-15c0-5.2,2.7-9.4,6.1-9.4h51.2c3.4,0,6.1,4.2,6.1,9.4v15
	C1447.7,387.1,1445,391.2,1441.6,391.2z"/>
<text transform="matrix(1.0397 0 0 1 1383.3898 332.959)" class="st0"><tspan x="0" y="0" class="st28 st24 st36">Number of </tspan><tspan x="1.5" y="16.3" class="st28 st24 st36">Revolution</tspan></text>
<text transform="matrix(0.945 0 0 1 1398.6251 386.5078)" class="st20 st37">00</text>
</svg>
