<?xml version="1.0" encoding="utf-8"?>
<!-- Generator: Adobe Illustrator 27.9.0, SVG Export Plug-In . SVG Version: 6.00 Build 0)  -->
<svg version="1.1" id="Layer_1" xmlns="http://www.w3.org/2000/svg" xmlns:xlink="http://www.w3.org/1999/xlink" x="0px" y="0px"
	 viewBox="0 0 1295 847.7" style="enable-background:new 0 0 1295 847.7;" xml:space="preserve">
<style type="text/css">
	.st0{enable-background:new    ;}
	.st1{fill:#005460;}
	.st2{fill:#005D6B;}
	.st3{fill:#808080;}
	.st4{fill:#8F8F8F;}
	.st5{fill:#E9E9E9;}
	.st6{fill:#0098AE;}
	.st7{fill:#8AE3FF;}
	.st8{fill:#00554F;}
	.st9{fill:#005F58;}
	.st10{opacity:0.9;}
	.st11{fill:#BBC2CC;}
	.st12{opacity:0.88;}
	.st13{fill:#F1FF8D;stroke:#F1FFA1;stroke-width:3;stroke-miterlimit:10;}
	.st14{fill:#8AE3FF;stroke:#000000;stroke-miterlimit:10;}
	.st15{fill:none;stroke:#005F58;stroke-width:3;stroke-miterlimit:10;}
	.st16{fill:#FFFFFF;stroke:#FFFFFF;stroke-width:2;stroke-miterlimit:10;}
	.st17{fill:#FFFFFF;stroke:#000000;stroke-width:2;stroke-miterlimit:10;}
	.st18{font-family:'ArialMT';}
	.st19{font-size:45.7156px;}
	.st20{font-size:45px;}
	.st21{font-size:25.5532px;}
	.st22{font-family:'TimesNewRomanPS-BoldMT';}
	.st23{font-size:32px;}
	.st24{font-size:20.8753px;}
	.st25{font-size:19.7019px;}
	.st26{font-size:47.7148px;}
	.st27{fill:none;stroke:#23005F;stroke-width:0.75;stroke-miterlimit:10;}
	.st28{fill:#FFFFFF;}
	.st29{font-size:3.8714px;}
	.st30{font-size:3.46px;}
	.st31{font-size:3.4597px;}
	.st32{font-size:10.7074px;}
	.st33{font-size:3.5335px;}
	.st34{fill:#009FB4;}
	.st35{fill:#D1D3D4;}
	.st36{fill:#1A2D58;}
	.st37{fill:#808285;}
	.st38{fill:#CBCDCF;}
	.st39{fill:#081835;}
	.st40{fill:#E3C6A7;}
</style>
<g>
	<g>
		<g>
			
				<image style="overflow:visible;enable-background:new    ;" width="1067" height="118" xlink:href="B5BEEBF3.png"  transform="matrix(0.999 0 0 0.999 185.5744 680.2949)">
			</image>
		</g>
	</g>
</g>
<g>
	<g>
		
			<image style="overflow:visible;enable-background:new    ;" width="646" height="271" xlink:href="B5BEEBF1.png"  transform="matrix(0.9981 0 0 0.9981 595.6044 503.8862)">
		</image>
	</g>
</g>
<g>
	<g>
		
			<image style="overflow:visible;enable-background:new    ;" width="88" height="511" xlink:href="B5BEEBFE.png"  transform="matrix(0.4891 0 0 0.4891 222.0019 540.2811)">
		</image>
	</g>
</g>
<g>
	<g>
		
			<image style="overflow:visible;enable-background:new    ;" width="86" height="512" xlink:href="B5BEEBFF.png"  transform="matrix(0.4885 0 0 0.4885 267.6013 488.3259)">
		</image>
	</g>
</g>
<g>
	<g>
		
			<image style="overflow:visible;enable-background:new    ;" width="88" height="512" xlink:href="B5BEEBF2.png"  transform="matrix(0.4881 0 0 0.4881 514.9359 488.4066)">
		</image>
	</g>
</g>
<g>
	<g>
		
			<image style="overflow:visible;enable-background:new    ;" width="88" height="512" xlink:href="B5BEEBF5.png"  transform="matrix(0.4881 0 0 0.4881 469.8518 541.2742)">
		</image>
	</g>
</g>
<g>
	<g>
		<g class="st0">
			<g>
				<polygon class="st1" points="588,508 588,523.5 245.6,522.3 245.6,506.9 				"/>
			</g>
			<g>
				<polygon class="st2" points="245.6,506.9 245.6,522.3 188.4,589.7 188.4,574.2 				"/>
			</g>
			<g>
				<polygon class="st3" points="530.7,575.4 530.7,590.8 188.4,589.7 188.4,574.2 				"/>
			</g>
			<g>
				<polygon class="st4" points="588,508 588,523.5 530.7,590.8 530.7,575.4 				"/>
			</g>
			<g>
				<polygon class="st5" points="245.6,506.9 588,508 530.7,575.4 188.4,574.2 				"/>
			</g>
			<g>
				<polygon class="st1" points="531.2,576.3 531.2,591.8 186.3,590.6 186.3,575.1 				"/>
			</g>
			<g>
				<polygon class="st2" points="590.1,507.1 590.1,522.5 531.2,591.8 531.2,576.3 				"/>
			</g>
			<g>
				<path class="st6" d="M245.1,505.9l344.9,1.2l-58.9,69.2l-344.9-1.2L245.1,505.9z M530.7,575.4l57.2-67.3l-342.4-1.2l-57.2,67.3
					L530.7,575.4"/>
			</g>
		</g>
	</g>
</g>
<polygon id="Water_Tank_Base" class="st7" points="530.5,576.7 188.2,574.9 245.8,507.2 588.1,508.9 "/>
<g>
	<g>
		<g class="st0">
			<g>
				<polygon class="st8" points="245,321.1 590,322.3 590,507.7 245,506.5 				"/>
			</g>
			<g>
				<polygon class="st8" points="587.9,323.2 587.9,508.6 245.5,507.5 245.5,322 				"/>
			</g>
			<g>
				<polygon class="st3" points="245.5,322 587.9,323.2 587.9,508.6 245.5,507.5 				"/>
			</g>
			<g>
				<polygon class="st9" points="186.2,390.3 245,321.1 245,506.5 186.2,575.7 				"/>
			</g>
			<g>
				<polygon class="st9" points="245.5,322 245.5,507.5 188.3,574.8 188.3,389.4 				"/>
			</g>
			<g>
				<polygon class="st4" points="188.3,389.4 245.5,322 245.5,507.5 188.3,574.8 				"/>
			</g>
			<g>
				<polygon class="st9" points="530.6,390.6 587.9,323.2 587.9,508.6 530.6,576 				"/>
			</g>
			<g>
				<polygon class="st4" points="587.9,323.2 587.9,508.6 530.6,576 530.6,390.6 				"/>
			</g>
		</g>
	</g>
</g>
<g>
	<g>
		
			<image style="overflow:visible;enable-background:new    ;" width="509" height="153" xlink:href="C70F2020.png"  transform="matrix(0.1965 0 0 0.1965 591.0237 495.538)">
		</image>
	</g>
</g>
<g class="st10">
	<g>
		
			<image style="overflow:visible;enable-background:new    ;" width="512" height="128" xlink:href="C70F202F.png"  transform="matrix(0.6774 0 0 0.6774 893.2593 503.8959)">
		</image>
	</g>
</g>
<g>
	<g>
		
			<image style="overflow:visible;enable-background:new    ;" width="54" height="511" xlink:href="C52FA6DB.png"  transform="matrix(0.5752 0 0 0.3689 997.9247 217.2723)">
		</image>
	</g>
</g>
<g>
	<g>
		
			<image style="overflow:visible;enable-background:new    ;" width="511" height="87" xlink:href="C52FA6DC.png"  transform="matrix(0.2917 0 0 0.3464 861.3566 202.8112)">
		</image>
	</g>
</g>
<g>
	<g>
		
			<image style="overflow:visible;enable-background:new    ;" width="513" height="43" xlink:href="C52FA6DD.png"  transform="matrix(0.3505 0 0 0.6978 278.412 202.8737)">
		</image>
	</g>
</g>
<rect id="Mercury_Left" x="694.9" y="396.8" class="st11" width="7.4" height="37.5"/>
<rect id="Mercury_Right" x="778.2" y="396.8" class="st11" width="7.5" height="37"/>
<g id="Mercury_Fixed">
	<g>
		<path class="st11" d="M785.7,432.9c0.1,1,0,5.6-0.1,7.4c-0.1,2.7-0.6,9.4-4.9,17.1c-6.3,11.1-15,17.5-16.9,18.4
			c-3.2,1.5-11.6,8.3-26.1,6c-14.3-2.3-23.2-10.1-27.5-14.4c-11-10.8-15.1-24-15.1-34.3l7.4,0.3c0,8.5,2.2,18.4,11.2,27.4
			c3.5,3.5,9.4,10.7,21,12.6c11.8,1.9,21.9-3.1,24.4-4.3c1.5-0.7,9.5-6.3,14.6-15.5c3.6-6.4,4-10.5,4.1-12.8c0.1-1.4,0.7-7,0.6-7.9
			L785.7,432.9L785.7,432.9z"/>
	</g>
</g>
<g class="st12">
	<g>
		
			<image style="overflow:visible;enable-background:new    ;" width="258" height="511" xlink:href="C52FA6DA.png"  transform="matrix(0.3759 0 0 0.3759 691.4164 295.4221)">
		</image>
	</g>
</g>
<g>
	<g>
		
			<image style="overflow:visible;enable-background:new    ;" width="187" height="512" xlink:href="6724B09D.png"  transform="matrix(0.2757 0 0 0.2757 761.551 163.8567)">
		</image>
	</g>
</g>
<g>
	<g>
		
			<image style="overflow:visible;enable-background:new    ;" width="253" height="512" xlink:href="6724B09B.png"  transform="matrix(0.137 0 0 0.137 778.5592 239.8651)">
		</image>
	</g>
</g>
<g>
	<g>
		
			<image style="overflow:visible;enable-background:new    ;" width="512" height="328" xlink:href="6724B087.png"  transform="matrix(0.3906 0 0 0.3906 501.6731 164.9066)">
		</image>
	</g>
</g>
<g>
	<g>
		
			<image style="overflow:visible;enable-background:new    ;" width="512" height="142" xlink:href="6724B084.png"  transform="matrix(0.3904 0 0 0.3904 501.1808 242.7628)">
		</image>
	</g>
</g>
<g>
	<g>
		
			<image style="overflow:visible;enable-background:new    ;" width="510" height="125" xlink:href="2A09881D.png"  transform="matrix(0.7069 0 0 0.3344 472.6224 197.674)">
		</image>
	</g>
</g>
<g>
	<g>
		
			<image style="overflow:visible;enable-background:new    ;" width="209" height="510" xlink:href="C52FA74A.png"  transform="matrix(0.1416 0 0 0.1078 998.6578 521.5599)">
		</image>
	</g>
</g>
<g>
	<g>
		
			<image style="overflow:visible;enable-background:new    ;" width="212" height="510" xlink:href="C52FA74F.png"  transform="matrix(0.1413 0 0 0.1413 676.5494 510.5391)">
		</image>
	</g>
</g>
<rect id="Water_1" x="1004" y="519.8" class="st7" width="19.6" height="51.7"/>
<rect id="Water_9" x="681.6" y="521.8" class="st7" width="19.6" height="56.8"/>
<rect id="Water_3" x="1004.7" y="228.2" class="st7" width="19.6" height="175.2"/>
<g>
	<g>
		
			<image style="overflow:visible;enable-background:new    ;" width="54" height="511" xlink:href="C52FA6DB.png"  transform="matrix(0.5752 0 0 0.1999 997.9247 132.3)">
		</image>
	</g>
</g>
<rect id="Water_3_00000139995959920278110170000008624891076724554114_" x="1004.7" y="144.5" class="st7" width="19.6" height="87.6"/>
<rect id="Water_4" x="936" y="208.2" class="st7" width="77.5" height="19.6"/>
<rect id="Water_8" x="594.6" y="501" class="st7" width="87.2" height="19.6"/>
<circle id="Tank_Empty_Corner" class="st13" cx="687.8" cy="514.5" r="17.4"/>
<rect id="Manometer_Water_Right_00000080197925184150286820000005080878160067944331_" x="780.2" y="313.3" class="st7" width="4.2" height="83.5"/>
<rect id="Water_6" x="283.9" y="208.6" class="st7" width="170.2" height="19.6"/>
<rect id="Manometer_Water_Right" x="697" y="312.4" class="st7" width="4.5" height="84.4"/>
<g id="Fringe_3">
	<g>
		
			<image style="overflow:visible;enable-background:new    ;" width="324" height="505" xlink:href="C52FA756.png"  transform="matrix(8.922845e-02 0 0 8.922845e-02 446.3755 195.3477)">
		</image>
	</g>
</g>
<g id="Fringe_1">
	<g>
		
			<image style="overflow:visible;enable-background:new    ;" width="321" height="505" xlink:href="C52FA758.png"  transform="matrix(8.946922e-02 0 0 8.946922e-02 455.2552 195.2869)">
		</image>
	</g>
</g>
<rect id="Water_5_00000062907981060019551920000004634209684482722736_" x="477.2" y="205.4" class="st7" width="350.9" height="26.7"/>
<g id="Fringe_4">
	<g>
		
			<image style="overflow:visible;enable-background:new    ;" width="326" height="505" xlink:href="C52FA755.png"  transform="matrix(0.1036 0 0 8.906778e-02 825.4366 195.3882)">
		</image>
	</g>
</g>
<g id="Fringe_2">
	<g>
		
			<image style="overflow:visible;enable-background:new    ;" width="328" height="505" xlink:href="C52FA757.png"  transform="matrix(0.1034 0 0 8.890700e-02 836.1305 195.4289)">
		</image>
	</g>
</g>
<rect id="Water_5" x="858.6" y="208.6" class="st7" width="79" height="19.6"/>
<circle id="Corner_Top_Right" class="st13" cx="1014" cy="219.4" r="18.9"/>
<ellipse id="Suction_Pipe_Opening" class="st7" cx="1013.8" cy="571.7" rx="9.8" ry="3"/>
<ellipse id="Tank_Empty_End" class="st7" cx="691.5" cy="578.5" rx="9.8" ry="3"/>
<polygon id="Tank_Water_Back" class="st7" points="245.1,398.1 587.9,399 587.9,508.1 245.1,508.1 "/>
<g>
	<polygon class="st1" points="590.1,322.1 590.1,507.5 531.2,576.7 531.2,391.3 	"/>
</g>
<g id="Tank_Empty_Control">
	<g>
		<g>
			
				<image style="overflow:visible;enable-background:new    ;" width="412" height="508" xlink:href="C52FA7C7.png"  transform="matrix(9.887402e-02 0 0 9.887402e-02 557.2469 485.3879)">
			</image>
		</g>
	</g>
	<g>
		<g>
			
				<image style="overflow:visible;enable-background:new    ;" width="168" height="503" xlink:href="C52FA7CF.png"  transform="matrix(3.819093e-02 0 0 3.819093e-02 574.4069 471.5281)">
			</image>
		</g>
	</g>
	<g>
		<g>
			
				<image style="overflow:visible;enable-background:new    ;" width="503" height="188" xlink:href="C52FA7C1.png"  transform="matrix(8.546718e-02 0 0 8.546718e-02 556.1201 465.6205)">
			</image>
		</g>
	</g>
</g>
<g id="Tank_Empty_Control_00000000920067168395717810000001351023711700812424_">
	<g>
		<g>
			
				<image style="overflow:visible;enable-background:new    ;" width="412" height="508" xlink:href="C52FA7C7.png"  transform="matrix(9.887402e-02 0 0 9.887402e-02 909.639 193.3863)">
			</image>
		</g>
	</g>
	<g>
		<g>
			
				<image style="overflow:visible;enable-background:new    ;" width="168" height="503" xlink:href="C52FA7CF.png"  transform="matrix(3.819093e-02 0 0 3.819093e-02 926.799 179.5265)">
			</image>
		</g>
	</g>
	<g>
		<g>
			
				<image style="overflow:visible;enable-background:new    ;" width="503" height="188" xlink:href="C52FA7C1.png"  transform="matrix(8.546718e-02 0 0 8.546718e-02 908.5121 173.6189)">
			</image>
		</g>
	</g>
</g>
<g>
	<g>
		
			<image style="overflow:visible;enable-background:new    ;" width="99" height="512" xlink:href="C70F2021.png"  transform="matrix(0.3085 0 0 0.4332 267.6958 141.2753)">
		</image>
	</g>
</g>
<rect id="Water_7_00000026160027622340798420000012759389283181320354_" x="273.2" y="218.6" class="st7" width="19.6" height="309.8"/>
<polygon id="Tank_Water_Left" class="st7" points="245.2,506.9 187.2,577.5 187.2,467.5 244.8,396.9 "/>
<rect id="Tank_Water_Front" x="187.2" y="467.5" class="st14" width="344.8" height="110"/>
<rect id="Water_7_00000095297791783075268460000002251397007410733194_" x="273.2" y="151.9" class="st7" width="19.6" height="65.2"/>
<line class="st15" x1="531.8" y1="392.3" x2="187.4" y2="391.3"/>
<g>
	<g>
		<g>
			
				<image style="overflow:visible;enable-background:new    ;" width="513" height="238" xlink:href="C52FA7C2.png"  transform="matrix(0.4361 0 0 0.4361 22.5491 211.7993)">
			</image>
		</g>
	</g>
	<path class="st16" d="M208.4,301.4H55c-10.2,0-18.4-8.2-18.4-18.4v-29.5c0-10.2,8.2-18.4,18.4-18.4h153.4
		c10.2,0,18.4,8.2,18.4,18.4V283C226.8,293.2,218.6,301.4,208.4,301.4z"/>
</g>
<g>
	<g>
		<g>
			
				<image style="overflow:visible;enable-background:new    ;" width="513" height="284" xlink:href="C52FA7C3.png"  transform="matrix(0.2182 0 0 0.2764 1090.889 131.8037)">
			</image>
		</g>
	</g>
	<path class="st17" d="M1172,203.2h-55.4c-8.4,0-15.2-8.6-15.2-19.3v-18.4c0-10.6,6.8-19.3,15.2-19.3h55.4c8.4,0,15.2,8.6,15.2,19.3
		v18.4C1187.2,194.5,1180.4,203.2,1172,203.2z"/>
</g>
<text transform="matrix(0.945 0 0 1 44.3584 275.4863)" class="st18 st19">00</text>
<text transform="matrix(1.0432 0 0 1 1129.6738 190.4902)" class="st18 st20">1</text>
<g>
	<g>
		
			<image style="overflow:visible;enable-background:new    ;" width="515" height="174" xlink:href="C52FA7C4.png"  transform="matrix(0.2983 0 0 0.3023 805.6978 366.9235)">
		</image>
	</g>
</g>
<path class="st17" d="M938.2,414.9H825.6c-6.8,0-12.4-5.6-12.4-12.6V389c0-6.9,5.5-12.6,12.4-12.6h112.5c6.8,0,12.4,5.6,12.4,12.6
	v13.3C950.6,409.2,945,414.9,938.2,414.9z"/>
<text transform="matrix(0.9757 0 0 1 816.5703 403.1328)" class="st18 st21">100 mm Hg</text>
<text transform="matrix(1.0432 0 0 1 1109.7461 75.6123)" class="st22 st23">Pipe </text>
<text transform="matrix(1.0432 0 0 1 1088.8877 113.0117)" class="st22 st23">Number</text>
<text transform="matrix(1.026 0 0 1 829.002 329.1299)" class="st22 st24">Manometer</text>
<text transform="matrix(1.026 0 0 1 844.3926 354.2295)" class="st22 st24">Reading</text>
<text transform="matrix(1.026 0 0 1 634.5957 448.7334)" class="st22 st24">Gate</text>
<text transform="matrix(1.026 0 0 1 630.3892 473.8335)" class="st22 st24">Valve</text>
<text transform="matrix(1.0397 0 0 1 89.9434 197.7368)" class="st22 st23">Timer</text>
<text transform="matrix(0.945 0 0 1 111.4229 275.1348)" class="st18 st19">00</text>
<text transform="matrix(0.945 0 0 1 175.8916 275.9883)" class="st18 st19">00</text>
<text transform="matrix(0.8527 0 0 1 53.3506 293.6123)" class="st18 st25">min</text>
<text transform="matrix(0.8527 0 0 1 121.7041 292.7588)" class="st18 st25">sec</text>
<text transform="matrix(0.8527 0 0 1 188.915 292.7588)" class="st18 st25">ms</text>
<text transform="matrix(0.945 0 0 1 96.8105 271.7178)" class="st18 st26">:</text>
<text transform="matrix(0.945 0 0 1 160.4326 271.3887)" class="st18 st26">:</text>
<g id="Manometer_Scale">
	<g>
		<g>
			
				<image style="overflow:visible;enable-background:new    ;" width="100" height="513" xlink:href="C52FA7C0.png"  transform="matrix(0.2489 0 0 0.2489 731.6556 336.3422)">
			</image>
		</g>
	</g>
	<g>
		<line class="st27" x1="732.6" y1="410.6" x2="751.9" y2="410.6"/>
		<line class="st27" x1="732.6" y1="416.4" x2="751.9" y2="416.4"/>
		<line class="st27" x1="732.6" y1="422.2" x2="751.9" y2="422.2"/>
		<line class="st27" x1="732.6" y1="428" x2="751.9" y2="428"/>
		<line class="st27" x1="732.6" y1="433.8" x2="751.9" y2="433.8"/>
		<line class="st27" x1="732.6" y1="439.5" x2="751.9" y2="439.5"/>
		<line class="st27" x1="732.6" y1="445.3" x2="751.9" y2="445.3"/>
		<line class="st27" x1="732.6" y1="451.1" x2="751.9" y2="451.1"/>
		<line class="st27" x1="732.6" y1="456.9" x2="751.9" y2="456.9"/>
		<g>
			<rect x="732.7" y="336.7" class="st27" width="19.2" height="127.1"/>
			<line class="st27" x1="732.6" y1="343.1" x2="751.9" y2="343.1"/>
			<line class="st27" x1="732.6" y1="348.6" x2="751.9" y2="348.6"/>
			<line class="st27" x1="732.6" y1="353.9" x2="751.9" y2="353.9"/>
			<line class="st27" x1="732.6" y1="359.3" x2="751.9" y2="359.3"/>
			<line class="st27" x1="732.6" y1="364.7" x2="751.9" y2="364.7"/>
			<line class="st27" x1="732.6" y1="370.1" x2="751.9" y2="370.1"/>
			<line class="st27" x1="732.6" y1="375.9" x2="751.9" y2="375.9"/>
			<line class="st27" x1="732.6" y1="381.7" x2="751.9" y2="381.7"/>
			<line class="st27" x1="732.6" y1="387.4" x2="751.9" y2="387.4"/>
			<line class="st27" x1="732.6" y1="393.2" x2="751.9" y2="393.2"/>
			<line class="st27" x1="732.6" y1="399" x2="751.9" y2="399"/>
			<line class="st27" x1="732.6" y1="404.9" x2="751.9" y2="404.9"/>
			<rect x="738.1" y="337.3" class="st28" width="8.5" height="124.9"/>
			<text transform="matrix(1.1057 0 0 1 739.0703 344.3818)" class="st18 st29">100</text>
			<text transform="matrix(1.1057 0 0 1 739.0693 458.458)" class="st18 st29">100</text>
			<text transform="matrix(1.144 0 0 1 740.8301 349.4404)" class="st18 st30">90</text>
			<text transform="matrix(1.0581 0 0 1 740.9648 354.791)" class="st18 st31">80</text>
			<text transform="matrix(1.0581 0 0 1 740.9902 360.3369)" class="st18 st31">70</text>
			<text transform="matrix(1.0581 0 0 1 740.9902 365.5859)" class="st18 st31">60</text>
			<text transform="matrix(1.0581 0 0 1 740.9902 371.3252)" class="st18 st31">50</text>
			<text transform="matrix(1.0581 0 0 1 741.2002 377.375)" class="st18 st31">40</text>
			<text transform="matrix(1.0581 0 0 1 740.9902 382.7236)" class="st18 st31">30</text>
			<text transform="matrix(1.0581 0 0 1 740.9902 388.4102)" class="st18 st31">20</text>
			<text transform="matrix(1.0581 0 0 1 740.9902 394.1953)" class="st18 st31">10</text>
			<text transform="matrix(1.0581 0 0 1 741.9795 400.2568)" class="st18 st31">0</text>
			<text transform="matrix(1.0581 0 0 1 740.9902 406.0742)" class="st18 st31">10</text>
			<text transform="matrix(1.0581 0 0 1 741.1455 411.7334)" class="st18 st31">20</text>
			<text transform="matrix(1.0581 0 0 1 740.9902 429.0801)" class="st18 st31">50</text>
			<text transform="matrix(1.0581 0 0 1 740.8291 434.959)" class="st18 st31">60</text>
			<text transform="matrix(1.0581 0 0 1 740.8291 440.8379)" class="st18 st31">70</text>
			<text transform="matrix(1.0581 0 0 1 740.8291 446.5283)" class="st18 st31">80</text>
			<text transform="matrix(1.0581 0 0 1 740.8291 452.3115)" class="st18 st31">90</text>
			<text transform="matrix(1.0581 0 0 1 740.9902 423.2129)" class="st18 st31">40</text>
			<text transform="matrix(1.0581 0 0 1 740.9902 417.5322)" class="st18 st31">30</text>
		</g>
	</g>
</g>
<path class="st27" d="M56.1,481.5"/>
<path class="st27" d="M55.8,492.4"/>
<path class="st27" d="M55.8,503.7"/>
<path class="st27" d="M55.8,515.4"/>
<g>
	<line class="st27" x1="125.4" y1="532.9" x2="195.7" y2="532.9"/>
	<line class="st27" x1="125.4" y1="543.5" x2="195.7" y2="543.5"/>
	<line class="st27" x1="125.4" y1="555.2" x2="195.7" y2="555.2"/>
	<line class="st27" x1="125.4" y1="566.9" x2="195.7" y2="566.9"/>
	<polyline class="st27" points="195.4,577.6 125.6,577.6 125.6,451.3 	"/>
	<path class="st27" d="M195.4,451.3"/>
	<line class="st27" x1="125.4" y1="467.5" x2="195.7" y2="467.5"/>
	<path class="st27" d="M196,466.6"/>
	<line class="st27" x1="125.4" y1="478.3" x2="195.7" y2="478.3"/>
	<path class="st27" d="M195.7,477.6"/>
	<line class="st27" x1="125.4" y1="489.3" x2="195.7" y2="489.3"/>
	<path class="st27" d="M195.7,488.8"/>
	<line class="st27" x1="125.4" y1="500.9" x2="195.7" y2="500.9"/>
	<path class="st27" d="M195.7,500.5"/>
	<line class="st27" x1="125.4" y1="511.6" x2="195.7" y2="511.6"/>
	<line class="st27" x1="125.4" y1="522.2" x2="195.7" y2="522.2"/>
	<rect x="122.9" y="447.5" class="st28" width="52.9" height="131.7"/>
	<text transform="matrix(1.2422 0 0 1 157.3359 571.1006)" class="st18 st32">1</text>
	<text transform="matrix(1.2422 0 0 1 157.4961 582.2939)" class="st18 st32">0</text>
	<text transform="matrix(1.2422 0 0 1 157.3359 559.2266)" class="st18 st32">2</text>
	<text transform="matrix(1.2422 0 0 1 157.3359 547.5635)" class="st18 st32">3</text>
	<text transform="matrix(1.2422 0 0 1 157.3359 536.084)" class="st18 st32">4</text>
	<text transform="matrix(1.2422 0 0 1 157.3359 525.9385)" class="st18 st32">5</text>
	<text transform="matrix(1.2422 0 0 1 157.3359 515.3242)" class="st18 st32">6</text>
	<text transform="matrix(1.2422 0 0 1 157.3359 505.1426)" class="st18 st32">7</text>
	<text transform="matrix(1.2422 0 0 1 157.3359 493.5322)" class="st18 st32">8</text>
	<text transform="matrix(1.2422 0 0 1 157.3359 482.374)" class="st18 st32">9</text>
	<text transform="matrix(1.2422 0 0 1 153.3359 471.2979)" class="st18 st32">10</text>
</g>
<text transform="matrix(0.9985 0 0 1 736.6895 340.1191)" class="st18 st33">mm Hg</text>
<ellipse id="Venturimeter_Opening_2" class="st7" cx="477.2" cy="218.8" rx="4.9" ry="13.3"/>
<ellipse id="Venturimeter_Opening_1" class="st7" cx="858" cy="218.4" rx="4" ry="9.8"/>
<g>
	<rect x="127.7" y="577.7" width="15.8" height="3.2"/>
	<polyline points="143.5,573.3 151.6,579.3 143.5,585.3 	"/>
</g>
<g>
	<rect x="602.2" y="437.7" transform="matrix(0.4766 -0.8791 0.8791 0.4766 -63.8909 774.7482)" width="33.1" height="6.7"/>
	<polyline points="621.9,461.6 602.8,470.5 599.8,449.6 	"/>
</g>
<g>
	<rect x="1012.9" y="356.8" class="st34" width="3.2" height="15.8"/>
	<polyline class="st34" points="1008.5,356.8 1014.5,348.6 1020.5,356.8 	"/>
</g>
<g>
	<rect x="1012.9" y="273.8" class="st34" width="3.2" height="15.8"/>
	<polyline class="st34" points="1008.5,273.8 1014.5,265.6 1020.5,273.8 	"/>
</g>
<g>
	<g>
		
			<image style="overflow:visible;enable-background:new    ;" width="511" height="87" xlink:href="C52FA6DC.png"  transform="matrix(0.2943 0 0 0.3464 861.3807 126.5125)">
		</image>
	</g>
</g>
<g>
	<g>
		
			<image style="overflow:visible;enable-background:new    ;" width="513" height="43" xlink:href="C52FA6DD.png"  transform="matrix(0.3505 0 0 0.6978 279.0681 126.575)">
		</image>
	</g>
</g>
<g>
	<g>
		
			<image style="overflow:visible;enable-background:new    ;" width="510" height="125" xlink:href="2A09881D.png"  transform="matrix(0.7069 0 0 0.2864 475.5478 123.3753)">
		</image>
	</g>
</g>
<rect id="Water_4_00000149378642199363456520000006717561428352899975_" x="937.3" y="131.9" class="st7" width="77.5" height="19.6"/>
<rect id="Water_6_00000037681608339211205360000018162764288620513197_" x="284.6" y="132.3" class="st7" width="170.2" height="19.6"/>
<g id="Fringe_3_00000049922111755396366520000011210886068330032806_">
	<g>
		
			<image style="overflow:visible;enable-background:new    ;" width="324" height="505" xlink:href="C52FA756.png"  transform="matrix(8.922845e-02 0 0 8.922845e-02 447.6819 119.049)">
		</image>
	</g>
</g>
<g id="Fringe_1_00000168839742378768158520000009956853940367732916_">
	<g>
		
			<image style="overflow:visible;enable-background:new    ;" width="321" height="505" xlink:href="C52FA758.png"  transform="matrix(8.946922e-02 0 0 8.946922e-02 456.5616 118.9882)">
		</image>
	</g>
</g>
<rect id="Water_5_00000163785673980995530440000002069174802288365696_" x="475.8" y="130" class="st7" width="353.8" height="22.9"/>
<g id="Fringe_4_00000023242968460357891040000008100615651667169212_">
	<g>
		
			<image style="overflow:visible;enable-background:new    ;" width="326" height="505" xlink:href="C52FA755.png"  transform="matrix(0.1036 0 0 8.906778e-02 826.9563 119.0895)">
		</image>
	</g>
</g>
<g id="Fringe_2_00000079443916332502409440000013100903700510206860_">
	<g>
		
			<image style="overflow:visible;enable-background:new    ;" width="328" height="505" xlink:href="C52FA757.png"  transform="matrix(0.1034 0 0 8.890700e-02 837.6503 119.1302)">
		</image>
	</g>
</g>
<rect id="Water_5_00000093136443619758743250000003865031603605405602_" x="858.6" y="132.3" class="st7" width="79.7" height="19.6"/>
<g id="Tank_Empty_Control_00000065044273326656307430000016454202350445878431_">
	<g>
		<g>
			
				<image style="overflow:visible;enable-background:new    ;" width="412" height="508" xlink:href="C52FA7C7.png"  transform="matrix(9.887402e-02 0 0 9.887402e-02 910.9454 117.0876)">
			</image>
		</g>
	</g>
	<g>
		<g>
			
				<image style="overflow:visible;enable-background:new    ;" width="168" height="503" xlink:href="C52FA7CF.png"  transform="matrix(3.819093e-02 0 0 3.819093e-02 928.1054 103.2278)">
			</image>
		</g>
	</g>
	<g>
		<g>
			
				<image style="overflow:visible;enable-background:new    ;" width="503" height="188" xlink:href="C52FA7C1.png"  transform="matrix(8.546718e-02 0 0 8.546718e-02 909.8185 97.3202)">
			</image>
		</g>
	</g>
</g>
<ellipse id="Venturimeter_Opening_2_00000109002368293566653570000014937964973929871500_" class="st7" cx="478" cy="141.4" rx="6.7" ry="11.4"/>
<ellipse id="Venturimeter_Opening_1_00000168833444989648729560000002215460476559209362_" class="st7" cx="858.4" cy="142.1" rx="4" ry="9.8"/>
<circle id="Corner_Top_Right_00000103258487532713219290000001561585567615664001_" class="st13" cx="1014" cy="141.7" r="18.9"/>
<g id="Motor">
	<rect x="1004.4" y="421.7" class="st35" width="19.2" height="76.3"/>
	<polygon class="st36" points="998.4,484 991.1,480.1 991.1,440.3 998.4,436.4 	"/>
	<path class="st37" d="M1023.6,498L1023.6,498v-76.3l0,0c3.6,0,6.4,2.9,6.4,6.4v63.5C1030.1,495.1,1027.2,498,1023.6,498z"/>
	<path class="st37" d="M1004.4,498L1004.4,498c-3.6,0-6.4-2.9-6.4-6.4v-63.5c0-3.6,2.9-6.4,6.4-6.4l0,0V498z"/>
	<rect x="1006.3" y="409.5" class="st38" width="15.3" height="12.3"/>
	<rect x="1006.3" y="497.9" class="st38" width="15.3" height="12.3"/>
	<rect x="997.1" y="395.8" class="st39" width="32.9" height="17"/>
	<rect x="1030.1" y="435.9" class="st39" width="17" height="47.8"/>
	<rect x="997.1" y="508.3" class="st39" width="32.9" height="17"/>
	<path class="st40" d="M1076.9,503.6h87c5.2,0,9.5-4.3,9.5-9.5v-69.4c0-5.2-4.3-9.5-9.5-9.5h-87c-17.9,0-32.5,14.5-32.5,32.5v23.4
		C1044.4,489,1058.9,503.6,1076.9,503.6z"/>
	<rect x="1120.1" y="428.5" class="st39" width="29.1" height="7.4"/>
	<rect x="1061.1" y="532.1" class="st39" width="94.4" height="7.2"/>
	<path class="st36" d="M1155.4,532.1l-94.3-0.1c3.3-0.2,14.6-1.1,24.4-10.1c7.5-6.9,10.1-15,11.1-18.5c8,0,16,0,24,0
		c0.8,3.6,3,10.6,9,16.9C1139.5,530.9,1152.3,531.9,1155.4,532.1z"/>
	<rect x="1120.1" y="442.4" class="st39" width="29.1" height="7.4"/>
	<rect x="1120.1" y="456.5" class="st39" width="29.1" height="7.4"/>
	<rect x="1120.1" y="469.9" class="st39" width="29.1" height="7.4"/>
	<rect x="1120.1" y="483.3" class="st39" width="29.1" height="7.4"/>
</g>
<g>
	<g>
		
			<image style="overflow:visible;enable-background:new    ;" width="513" height="298" xlink:href="6724B111.png"  transform="matrix(6.653583e-02 0 0 6.653583e-02 681.9335 283.8304)">
		</image>
	</g>
</g>
<g>
	<g>
		
			<image style="overflow:visible;enable-background:new    ;" width="513" height="293" xlink:href="6724B117.png"  transform="matrix(6.681690e-02 0 0 6.681690e-02 681.8615 298.6334)">
		</image>
	</g>
</g>
<ellipse id="Corner_Top_Left_00000073692359802023707290000015383791535934996099_" class="st13" cx="283" cy="141.7" rx="17.4" ry="18.4"/>
<ellipse id="Corner_Top_Left_00000066503617253369152690000012862279036503492014_" class="st13" cx="283" cy="219.9" rx="17.4" ry="18.4"/>
<g>
	<g>
		
			<image style="overflow:visible;enable-background:new    ;" width="513" height="298" xlink:href="6724B174.png"  transform="matrix(6.653583e-02 0 0 6.653583e-02 764.9489 299.8304)">
		</image>
	</g>
</g>
<g>
	<g>
		
			<image style="overflow:visible;enable-background:new    ;" width="513" height="298" xlink:href="6724B177.png"  transform="matrix(6.653583e-02 0 0 6.653583e-02 764.9489 314.8304)">
		</image>
	</g>
</g>
<g>
	<g>
		
			<image style="overflow:visible;enable-background:new    ;" width="499" height="502" xlink:href="6724B10B.png"  transform="matrix(3.596387e-02 0 0 3.596387e-02 495.5446 151.5878)">
		</image>
	</g>
</g>
<g>
	<g>
		
			<image style="overflow:visible;enable-background:new    ;" width="499" height="498" xlink:href="6724B10C.png"  transform="matrix(3.610831e-02 0 0 3.610831e-02 495.5086 231.4779)">
		</image>
	</g>
</g>
<g>
	<g>
		
			<image style="overflow:visible;enable-background:new    ;" width="492" height="498" xlink:href="6724B10F.png"  transform="matrix(3.636297e-02 0 0 3.636297e-02 800.3475 231.4145)">
		</image>
	</g>
</g>
<g>
	<g>
		
			<image style="overflow:visible;enable-background:new    ;" width="488" height="502" xlink:href="6724B10D.png"  transform="matrix(3.636000e-02 0 0 3.636000e-02 800.2838 151.4883)">
		</image>
	</g>
</g>
</svg>
